<svg xmlns="http://www.w3.org/2000/svg" width="14" height="12" fill="none" viewBox="0 0 14 12"><path fill="#718D8B" d="M0.223772 5.27955L5.27967 0.223543C5.42399 0.0792188 5.61635 0 5.82145 0C6.02678 0 6.21902 0.0793326 6.36335 0.223543L6.82238 0.682693C6.96659 0.826789 7.04604 1.01926 7.04604 1.22448C7.04604 1.42958 6.96659 1.62854 6.82238 1.77263L3.87285 4.72866H13.2437C13.6662 4.72866 14 5.05942 14 5.48203V6.13115C14 6.55376 13.6662 6.91787 13.2437 6.91787H3.83939L6.82227 9.8904C6.96648 10.0347 7.04593 10.222 7.04593 10.4272C7.04593 10.6322 6.96648 10.8221 6.82227 10.9663L6.36323 11.424C6.21891 11.5683 6.02667 11.647 5.82134 11.647C5.61623 11.647 5.42388 11.5673 5.27955 11.423L0.223659 6.3671C0.0789928 6.22232 -0.000566483 6.02905 1.90735e-06 5.82361C-0.000452995 5.61748 0.0789928 5.4241 0.223772 5.27955Z"/></svg>