<svg xmlns="http://www.w3.org/2000/svg" width="17" height="10" fill="none" viewBox="0 0 17 10"><path fill="#49B977" d="M9.12139 8.88907L16.652 2.6589C16.8263 2.5148 16.9224 2.32244 16.9224 2.11734C16.9224 1.91224 16.8263 1.71988 16.652 1.57578L16.0976 1.11697C15.7363 0.818423 15.1491 0.818423 14.7883 1.11697L8.46458 6.34861L2.1338 1.11117C1.95949 0.967073 1.72711 0.887512 1.47933 0.887512C1.23127 0.887512 0.998898 0.967073 0.824444 1.11117L0.270132 1.56998C0.0958176 1.71419 -0.000213623 1.90643 -0.000213623 2.11153C-0.000213623 2.31664 0.0958176 2.509 0.270132 2.65309L7.80763 8.88907C7.9825 9.03351 8.21597 9.11284 8.46417 9.11239C8.71333 9.11284 8.94667 9.03351 9.12139 8.88907Z"/></svg>