<svg width="17" height="10" viewBox="0 0 17 10" fill="none" xmlns="http://www.w3.org/2000/svg">
<path d="M9.12139 1.11091L16.652 7.34109C16.8263 7.48518 16.9224 7.67754 16.9224 7.88265C16.9224 8.08775 16.8263 8.28011 16.652 8.4242L16.0976 8.88301C15.7363 9.18156 15.1491 9.18156 14.7883 8.88301L8.46458 3.65138L2.1338 8.88882C1.95949 9.03291 1.72711 9.11247 1.47933 9.11247C1.23127 9.11247 0.998898 9.03291 0.824444 8.88882L0.270132 8.43001C0.0958176 8.2858 -0.000213623 8.09355 -0.000213623 7.88845C-0.000213623 7.68335 0.0958176 7.49099 0.270132 7.34689L7.80763 1.11091C7.9825 0.966473 8.21597 0.88714 8.46417 0.887596C8.71333 0.88714 8.94667 0.966473 9.12139 1.11091Z" fill="#D355B8"/>
</svg>
