<svg xmlns="http://www.w3.org/2000/svg" width="24" height="29" fill="none" viewBox="0 0 24 29"><path fill="#49B977" d="M3.65625 19V9C3.65625 6.61305 4.57483 4.32387 6.20991 2.63604C7.845 0.948211 10.0626 0 12.375 0C14.6874 0 16.905 0.948211 18.5401 2.63604C20.1752 4.32387 21.0938 6.61305 21.0938 9V19C21.8645 19 22.6038 19.3161 23.1488 19.8787C23.6938 20.4413 24 21.2044 24 22C24 22.7956 23.6938 23.5587 23.1488 24.1213C22.6038 24.6839 21.8645 25 21.0938 25H15.2812V26C15.2812 26.7956 14.9751 27.5587 14.43 28.1213C13.885 28.6839 13.1458 29 12.375 29C11.6042 29 10.865 28.6839 10.32 28.1213C9.77494 27.5587 9.46875 26.7956 9.46875 26V25H3.65625C2.88546 25 2.14625 24.6839 1.60122 24.1213C1.05619 23.5587 0.75 22.7956 0.75 22C0.75 21.2044 1.05619 20.4413 1.60122 19.8787C2.14625 19.3161 2.88546 19 3.65625 19ZM12.375 2C10.5765 2 8.85166 2.7375 7.57993 4.05025C6.3082 5.36301 5.59375 7.14348 5.59375 9V19H19.1562V9C19.1562 7.14348 18.4418 5.36301 17.1701 4.05025C15.8983 2.7375 14.1735 2 12.375 2ZM11.4062 26C11.4062 26.2652 11.5083 26.5196 11.69 26.7071C11.8717 26.8946 12.1181 27 12.375 27C12.6319 27 12.8783 26.8946 13.06 26.7071C13.2417 26.5196 13.3438 26.2652 13.3438 26V25H11.4062V26ZM3.65625 23H21.0938C21.3507 23 21.5971 22.8946 21.7788 22.7071C21.9604 22.5196 22.0625 22.2652 22.0625 22C22.0625 21.7348 21.9604 21.4804 21.7788 21.2929C21.5971 21.1054 21.3507 21 21.0938 21H3.65625C3.39932 21 3.15292 21.1054 2.97124 21.2929C2.78956 21.4804 2.6875 21.7348 2.6875 22C2.6875 22.2652 2.78956 22.5196 2.97124 22.7071C3.15292 22.8946 3.39932 23 3.65625 23Z"/></svg>