<svg xmlns="http://www.w3.org/2000/svg" width="42" height="42" fill="none" viewBox="0 0 42 42"><path fill="#49B977" fill-rule="evenodd" d="M19.6864 0.267482C20.2213 -0.0891607 20.9182 -0.0891607 21.4533 0.267482L40.4274 12.9169C41.7386 13.791 41.1198 15.8348 39.5439 15.8348H1.5956C0.0198012 15.8348 -0.598994 13.791 0.712154 12.9169L19.6864 0.267482ZM20.5699 2.413L3.84997 13.5595H37.2896L20.5699 2.413ZM39.1653 14.81C39.1651 14.8098 39.1647 14.8096 39.1644 14.8094L39.1653 14.81Z" clip-rule="evenodd"/><path fill="#49B977" fill-rule="evenodd" d="M34.2211 32.8991C33.5929 32.8991 33.0835 32.3896 33.0835 31.7614V19.2477C33.0835 18.6195 33.5929 18.11 34.2211 18.11C34.8493 18.11 35.3587 18.6195 35.3587 19.2477V31.7614C35.3587 32.3896 34.8493 32.8991 34.2211 32.8991Z" clip-rule="evenodd"/><path fill="#49B977" fill-rule="evenodd" d="M25.1205 32.8991C24.4923 32.8991 23.9829 32.3896 23.9829 31.7614V19.2477C23.9829 18.6195 24.4923 18.11 25.1205 18.11C25.7487 18.11 26.2581 18.6195 26.2581 19.2477V31.7614C26.2581 32.3896 25.7487 32.8991 25.1205 32.8991Z" clip-rule="evenodd"/><path fill="#49B977" fill-rule="evenodd" d="M16.0195 32.8991C15.3912 32.8991 14.8818 32.3896 14.8818 31.7614V19.2477C14.8818 18.6195 15.3912 18.11 16.0195 18.11C16.6476 18.11 17.1571 18.6195 17.1571 19.2477V31.7614C17.1571 32.3896 16.6476 32.8991 16.0195 32.8991Z" clip-rule="evenodd"/><path fill="#49B977" fill-rule="evenodd" d="M6.91838 32.8991C6.2901 32.8991 5.78076 32.3896 5.78076 31.7614V19.2477C5.78076 18.6195 6.2901 18.11 6.91838 18.11C7.54666 18.11 8.05599 18.6195 8.05599 19.2477V31.7614C8.05599 32.3896 7.54666 32.8991 6.91838 32.8991Z" clip-rule="evenodd"/><path fill="#49B977" fill-rule="evenodd" d="M1.23047 38.5872C1.23047 36.7024 2.75845 35.1743 4.64332 35.1743H36.4966C38.3814 35.1743 39.9094 36.7024 39.9094 38.5872C39.9094 40.472 38.3814 42 36.4966 42H4.64332C2.75845 42 1.23047 40.472 1.23047 38.5872ZM4.64332 37.4495C4.01503 37.4495 3.5057 37.959 3.5057 38.5872C3.5057 39.2154 4.01503 39.7248 4.64332 39.7248H36.4966C37.1248 39.7248 37.6342 39.2154 37.6342 38.5872C37.6342 37.959 37.1248 37.4495 36.4966 37.4495H4.64332Z" clip-rule="evenodd"/></svg>