<svg width="29" height="29" viewBox="0 0 29 29" fill="none" xmlns="http://www.w3.org/2000/svg">
<path d="M27.1877 0.90448C27.688 0.906292 28.0921 1.3141 28.0903 1.81435C28.0885 2.31189 27.6852 2.71517 27.1877 2.71698H25.7894L21.7257 17.1481C23.0742 17.6737 23.7666 18.9561 23.7222 20.1514C23.6651 21.6757 22.4299 23.1076 20.1715 23.1076H6.44998C5.95064 23.1067 5.54736 22.7034 5.54555 22.205C5.54736 21.7065 5.95064 21.3033 6.44998 21.3024H20.1715C21.3922 21.3024 21.887 20.6906 21.9097 20.0844C21.9315 19.4853 21.5037 18.8084 20.5449 18.6914L5.59358 18.0299C3.91248 17.8794 2.95095 16.8119 2.46248 15.4289L1.07864 11.4822C0.779575 10.6213 0.876545 9.73589 1.29795 9.06073C1.71936 8.38557 2.44164 7.93698 3.31254 7.86992L5.47214 7.74395C5.79567 4.40895 8.62136 1.78264 12.037 1.78264C15.1917 1.78264 17.8425 4.02379 18.4868 6.99176L22.7752 6.74526L24.2315 1.56967C24.3412 1.17907 24.6955 0.909011 25.1006 0.908105H27.1877V0.90448ZM12.037 3.59332C9.38261 3.59332 7.25382 5.72845 7.25382 8.38286C7.25382 11.0373 9.38442 13.1669 12.037 13.1669C14.6914 13.1669 16.8275 11.0354 16.8275 8.38286C16.8275 5.73026 14.6905 3.59332 12.037 3.59332ZM11.9709 5.68676C12.472 5.68857 12.8753 6.09639 12.8735 6.59664V7.45848H13.7371C14.2374 7.45667 14.6443 7.86085 14.6461 8.3611V8.36836C14.6443 8.86861 14.2365 9.27279 13.7371 9.27098H12.8735V10.1346C12.8753 10.6349 12.472 11.0427 11.9709 11.0445C11.4697 11.0463 11.0628 10.6421 11.061 10.1419C11.061 10.1392 11.061 10.1374 11.061 10.1346V9.27098H10.1973C9.69979 9.26917 9.29651 8.86589 9.2947 8.36836C9.29289 7.86811 9.69617 7.46029 10.1973 7.45848H11.061V6.59664C11.0592 6.09639 11.4615 5.68857 11.9636 5.68676H11.9709ZM22.255 8.59129L18.6173 8.79973C18.3989 12.2389 15.5288 14.9785 12.0361 14.9785C8.80261 14.9785 6.1047 12.6295 5.54917 9.55192L3.43217 9.67426C3.14579 9.69601 2.95911 9.82198 2.83767 10.0159C2.71533 10.2099 2.65551 10.4917 2.78964 10.8923L4.17439 14.8181C4.52239 15.8023 5.01811 16.1485 5.7277 16.2165L19.9314 16.8454L22.255 8.59129Z" fill="#49B977"/>
<path d="M8.0105 25.9999C7.45821 25.9999 7.0105 25.5522 7.0105 24.9999C7.0105 24.4477 7.45821 23.9999 8.0105 23.9999C8.56278 23.9999 9.0105 24.4477 9.0105 24.9999C9.0105 25.5522 8.56278 25.9999 8.0105 25.9999Z" fill="#49B977"/>
<path d="M20.0105 25.9999C19.4582 25.9999 19.0105 25.5522 19.0105 24.9999C19.0105 24.4477 19.4582 23.9999 20.0105 23.9999C20.5628 23.9999 21.0105 24.4477 21.0105 24.9999C21.0105 25.5522 20.5628 25.9999 20.0105 25.9999Z" fill="#49B977"/>
</svg>
