<svg xmlns="http://www.w3.org/2000/svg" width="72" height="72" fill="none" viewBox="0 0 72 72"><path fill="#49B977" d="M63.2413 33.7278C63.165 32.6682 62.2454 31.8728 61.1842 31.9473C60.1245 32.0237 59.3274 32.9446 59.4037 34.0044C59.451 34.659 59.4748 35.3306 59.4748 36C59.4748 51.3367 46.9977 63.8138 31.6612 63.8138C16.3246 63.8138 3.8475 51.3366 3.8475 36C3.8475 20.6634 16.3246 8.18635 31.6613 8.18635C37.735 8.18635 43.5033 10.1084 48.3422 13.7446C49.1917 14.3827 50.3975 14.2116 51.0358 13.3623C51.6742 12.513 51.5031 11.307 50.6537 10.6688C45.1427 6.52782 38.5753 4.33899 31.6612 4.33899C14.2033 4.33885 0 18.5421 0 36C0 53.4579 14.2033 67.661 31.6613 67.661C49.1193 67.661 63.3223 53.458 63.3223 36C63.3223 35.2387 63.2949 34.4742 63.2413 33.7278Z"/><path fill="#49B977" d="M69.8056 8.68637C66.8795 5.76039 62.1182 5.76039 59.1921 8.68637L31.4735 36.4047L21.6475 26.5785C18.7214 23.6525 13.9601 23.6525 11.0339 26.5785C8.10782 29.5046 8.10782 34.2659 11.0339 37.192L27.9569 54.115C28.9265 55.0846 30.2 55.5693 31.4735 55.5693C32.7472 55.5693 34.0207 55.0846 34.9903 54.115L69.8056 19.2996C72.7315 16.3736 72.7315 11.6126 69.8056 8.68637ZM67.0851 16.5792L32.2696 51.3949C31.8308 51.8336 31.1165 51.8336 30.6777 51.3949L13.7548 34.4718C12.3287 33.0457 12.3287 30.7255 13.7548 29.2995C14.4677 28.5862 15.4042 28.2299 16.3409 28.2299C17.2776 28.2299 18.2141 28.5864 18.927 29.2995L29.0354 39.4079C29.6867 40.0591 30.5528 40.4177 31.4737 40.4177C32.3949 40.4177 33.261 40.059 33.9122 39.4077L61.9128 11.4069C63.3384 9.98082 65.659 9.98082 67.0851 11.4069C68.5111 12.833 68.5111 15.1532 67.0851 16.5792Z"/></svg>