<svg width="30" height="25" viewBox="0 0 30 25" fill="none" xmlns="http://www.w3.org/2000/svg">
<path d="M6 10H19C19.2652 10 19.5196 10.1054 19.7071 10.2929C19.8946 10.4804 20 10.7348 20 11C20 11.2652 19.8946 11.5196 19.7071 11.7071C19.5196 11.8946 19.2652 12 19 12H6C5.73478 12 5.48043 11.8946 5.29289 11.7071C5.10536 11.5196 5 11.2652 5 11C5 10.7348 5.10536 10.4804 5.29289 10.2929C5.48043 10.1054 5.73478 10 6 10Z" fill="#49B977"/>
<path d="M1.12 6.1C1.40121 5.75639 1.75518 5.47948 2.15637 5.28926C2.55757 5.09904 2.99599 5.00024 3.44 5H23.18L23.7 2.41C23.8363 1.73054 24.2036 1.11921 24.7396 0.679887C25.2755 0.24056 25.947 0.000326007 26.64 0H29C29.2652 0 29.5196 0.105357 29.7071 0.292893C29.8946 0.48043 30 0.734784 30 1C30 1.26522 29.8946 1.51957 29.7071 1.70711C29.5196 1.89464 29.2652 2 29 2H26.64C26.4061 1.99528 26.1779 2.07275 25.9951 2.21893C25.8124 2.3651 25.6868 2.57072 25.64 2.8L22.3 19.59C22.1637 20.2695 21.7964 20.8808 21.2605 21.3201C20.7245 21.7594 20.053 21.9997 19.36 22H4C3.73478 22 3.48043 21.8946 3.29289 21.7071C3.10536 21.5196 3 21.2652 3 21C3 20.7348 3.10536 20.4804 3.29289 20.2929C3.48043 20.1054 3.73478 20 4 20H19.36C19.5939 20.0047 19.8221 19.9272 20.0049 19.7811C20.1876 19.6349 20.3132 19.4293 20.36 19.2L20.78 17H4.64C3.947 16.9997 3.27549 16.7594 2.73955 16.3201C2.20361 15.8808 1.83629 15.2695 1.7 14.59L0.5 8.59C0.412767 8.15494 0.42313 7.70594 0.530342 7.27537C0.637554 6.84479 0.838943 6.44336 1.12 6.1ZM3.66 14.2C3.70675 14.4293 3.83242 14.6349 4.01514 14.7811C4.19786 14.9272 4.42605 15.0047 4.66 15H21.18L22.78 7H3.44C3.29229 7.00098 3.14664 7.03466 3.0135 7.09864C2.88037 7.16261 2.76305 7.25529 2.67 7.37C2.57574 7.48417 2.508 7.61785 2.47168 7.76139C2.43537 7.90493 2.43138 8.05473 2.46 8.2L3.66 14.2Z" fill="#49B977"/>
<path d="M6 25C5.44772 25 5 24.5523 5 24C5 23.4477 5.44772 23 6 23C6.55228 23 7 23.4477 7 24C7 24.5523 6.55228 25 6 25Z" fill="#49B977"/>
<path d="M18 25C17.4477 25 17 24.5523 17 24C17 23.4477 17.4477 23 18 23C18.5523 23 19 23.4477 19 24C19 24.5523 18.5523 25 18 25Z" fill="#49B977"/>
</svg>
