<svg xmlns="http://www.w3.org/2000/svg" width="74" height="74" fill="none" viewBox="0 0 74 74"><path fill="#2F2C2D" d="M61.2237 24.2813L47.2331 10.2906C47.0597 10.1172 46.7706 10.0016 46.5394 10.0016H26.3628C23.5878 10.0016 21.3331 12.2563 21.3331 15.0313V34.5141H15.3784C13.7597 34.5141 12.4878 35.786 12.4878 37.4047V54.3438C12.4878 55.9625 13.7597 57.2344 15.3784 57.2344H21.3331V59.0844C21.3331 61.8594 23.5878 64.1141 26.3628 64.1141H56.5409C59.3159 64.1141 61.5706 61.8594 61.5706 59.0844V24.975C61.5128 24.7438 61.3972 24.4547 61.2237 24.2813ZM58.044 23.9922H50.4706C48.8519 23.9922 47.4644 22.6625 47.4644 20.986V13.4125L58.044 23.9922ZM14.5112 54.286V37.3469C14.5112 36.8844 14.9159 36.4797 15.3784 36.4797H44.6315C45.094 36.4797 45.4987 36.8844 45.4987 37.3469V54.286C45.4987 54.7485 45.094 55.1532 44.6315 55.1532H15.3784C14.9159 55.1532 14.5112 54.7485 14.5112 54.286ZM56.5409 61.975H26.3628C24.744 61.975 23.3565 60.6453 23.3565 58.9688V57.1188H44.5737C46.1925 57.1188 47.4644 55.8469 47.4644 54.2281V37.3469C47.4644 35.7281 46.1925 34.4563 44.5737 34.4563H23.3565V14.9735C23.3565 13.3547 24.6862 11.9672 26.3628 11.9672H45.4987V20.986C45.4987 23.761 47.7534 26.0156 50.5284 26.0156H59.5472V59.0266C59.4894 60.6453 58.1597 61.975 56.5409 61.975Z"/><path fill="#2F2C2D" d="M24.4546 45.7875C24.4546 43.3594 22.489 41.625 19.6562 41.625H16.6499V49.95H19.6562C22.489 50.0078 24.4546 48.2734 24.4546 45.7875ZM19.8874 48.3312H18.4421V43.2438H19.8874C21.2749 43.1859 22.489 44.2266 22.6046 45.6141C22.7202 47.175 21.4483 48.4469 19.8874 48.3312Z"/><path fill="#2F2C2D" d="M30.0624 50.1233C32.4327 50.0655 34.3405 48.0999 34.2827 45.6717C34.2249 43.3014 32.2593 41.3936 29.8312 41.4514C27.5187 41.5092 25.6108 43.417 25.6108 45.7874C25.7265 48.2155 27.6921 50.1233 30.0624 50.1233ZM30.0624 43.128C31.5655 43.0702 32.7796 44.2264 32.8374 45.7295C32.8952 47.2327 31.739 48.4467 30.2358 48.5045C28.7327 48.5624 27.5187 47.4061 27.4608 45.903C27.4608 45.8452 27.4608 45.8452 27.4608 45.7874C27.5187 44.342 28.6171 43.1858 30.0624 43.128Z"/><path fill="#2F2C2D" d="M40.0641 50.1233C41.2782 50.1233 42.4345 49.603 43.3016 48.7358L42.0298 47.5796C41.5673 48.1577 40.8157 48.5046 40.0641 48.5046C38.561 48.4468 37.4048 47.1749 37.4626 45.7296C37.5204 44.3421 38.6188 43.1858 40.0641 43.128C40.8157 43.128 41.5095 43.4749 42.0298 44.053L43.3016 42.8968C41.7407 41.0468 38.9657 40.8733 37.1157 42.4343C35.2657 43.9952 35.0923 46.7702 36.6532 48.6202C37.5204 49.603 38.7923 50.1233 40.0641 50.1233Z"/></svg>