<svg width="31" height="31" viewBox="0 0 31 31" fill="none" xmlns="http://www.w3.org/2000/svg">
<path d="M27.8367 18.6969C27.5797 18.6969 27.3333 18.799 27.1517 18.9806C26.97 19.1623 26.8679 19.4087 26.8679 19.6656V22.9739C26.8679 23.7537 26.5581 24.5015 26.0068 25.0529C25.4554 25.6043 24.7075 25.9141 23.9278 25.9141H7.0715C6.29173 25.9141 5.54389 25.6043 4.9925 25.0529C4.44111 24.5015 4.13135 23.7537 4.13135 22.9739V19.6656C4.13135 19.4087 4.02928 19.1623 3.84761 18.9806C3.66593 18.799 3.41953 18.6969 3.1626 18.6969C2.90567 18.6969 2.65926 18.799 2.47759 18.9806C2.29591 19.1623 2.19385 19.4087 2.19385 19.6656V22.9739C2.19513 24.2672 2.70944 25.5071 3.6239 26.4215C4.53836 27.336 5.77826 27.8503 7.0715 27.8516H23.9278C25.221 27.8503 26.4609 27.336 27.3754 26.4215C28.2898 25.5071 28.8041 24.2672 28.8054 22.9739V19.6656C28.8054 19.4087 28.7033 19.1623 28.5217 18.9806C28.34 18.799 28.0936 18.6969 27.8367 18.6969Z" fill="#718D8B"/>
<path d="M14.8121 21.5256C14.9021 21.6164 15.0093 21.6885 15.1273 21.7377C15.2454 21.7869 15.372 21.8122 15.4999 21.8122C15.6278 21.8122 15.7544 21.7869 15.8725 21.7377C15.9905 21.6885 16.0976 21.6164 16.1877 21.5256L21.6999 16.0134C21.8537 15.8284 21.9331 15.5927 21.9227 15.3523C21.9123 15.1119 21.8127 14.884 21.6435 14.7129C21.4743 14.5419 21.2474 14.4399 21.0071 14.4269C20.7668 14.4139 20.5303 14.4908 20.3436 14.6427L16.4686 18.5177V4.11719C16.4686 3.86026 16.3666 3.61385 16.1849 3.43218C16.0032 3.2505 15.7568 3.14844 15.4999 3.14844C15.243 3.14844 14.9966 3.2505 14.8149 3.43218C14.6332 3.61385 14.5311 3.86026 14.5311 4.11719V18.5031L10.6561 14.6281C10.4744 14.4463 10.2278 14.3442 9.97075 14.3442C9.71368 14.3442 9.46714 14.4463 9.28536 14.6281C9.10359 14.8099 9.00146 15.0564 9.00146 15.3135C9.00146 15.5706 9.10359 15.8171 9.28536 15.9989L14.8121 21.5256Z" fill="#718D8B"/>
</svg>
