<svg xmlns="http://www.w3.org/2000/svg" width="21" height="21" fill="none" viewBox="0 0 21 21"><g clip-path="url(#clip0_420:14042)"><path fill="#C0CFCE" d="M20.8797 10.852C19.1236 14.5492 15.1303 17.8828 10.459 17.8828C5.2029 17.8828 1.42481 13.7712 0.038292 10.852C-0.0674515 10.6293 -0.0674515 10.3707 0.038292 10.148C1.79444 6.45082 5.78769 3.11717 10.459 3.11717C15.7151 3.11717 19.4932 7.22899 20.8797 10.148C20.9854 10.3707 20.9854 10.6293 20.8797 10.852ZM10.459 4.7578C6.67979 4.7578 3.54641 7.24838 1.7084 10.5C3.53872 13.7383 6.67017 16.2422 10.459 16.2422C14.2379 16.2422 17.3716 13.7519 19.2096 10.5C17.3793 7.26184 14.2478 4.7578 10.459 4.7578ZM10.459 14.6016C8.19736 14.6016 6.35743 12.7616 6.35743 10.5C6.35743 8.23836 8.19736 6.39843 10.459 6.39843C12.7206 6.39843 14.5606 8.23836 14.5606 10.5C14.5606 12.7616 12.7206 14.6016 10.459 14.6016ZM10.459 8.03905C9.10211 8.03905 7.99805 9.14311 7.99805 10.5C7.99805 11.857 9.10211 12.9609 10.459 12.9609C11.816 12.9609 12.9199 11.857 12.9199 10.5C12.9199 9.14311 11.816 8.03905 10.459 8.03905Z"/></g><line x1="2.094" x2="19.344" y1="3.696" y2="16.446" stroke="#C0CFCE" stroke-width="2"/><defs><clipPath id="clip0_420:14042"><rect width="21" height="21" fill="#fff" transform="matrix(1 0 0 -1 0 21)"/></clipPath></defs></svg>