<svg xmlns="http://www.w3.org/2000/svg" width="30" height="30" fill="none" viewBox="0 0 30 30"><g clip-path="url(#clip0_74:2606)"><path fill="#49B977" d="M7.73341 22.8045C7.97786 22.8045 8.02675 22.7801 8.24675 22.7312L12.6467 21.8512C13.1112 21.729 13.5756 21.509 13.9423 21.1423L24.6001 10.4845C26.2379 8.84674 26.2379 6.03563 24.6001 4.39785L23.6956 3.44452C22.0579 1.80674 19.2223 1.80674 17.5845 3.44452L6.92675 14.1267C6.58453 14.469 6.34008 14.9579 6.21786 15.4223L5.28897 19.8712C5.16675 20.7023 5.41119 21.509 5.99786 22.0956C6.4623 22.5601 7.14675 22.8045 7.73341 22.8045ZM8.56453 15.8867L19.2223 5.20452C19.9312 4.49563 21.2267 4.49563 21.9112 5.20452L22.8401 6.13341C23.6712 6.96452 23.6712 8.13785 22.8401 8.94452L12.2067 19.6267L7.68453 20.3845L8.56453 15.8867Z"/><path fill="#49B977" d="M24.5024 24.3201H6.4624C5.75351 24.3201 5.28906 24.7845 5.28906 25.4934C5.28906 26.2023 5.87573 26.6667 6.4624 26.6667H24.4046C25.1135 26.6667 25.7002 26.2023 25.7002 25.4934C25.6757 24.7845 25.0891 24.3201 24.5024 24.3201Z"/></g><defs><clipPath id="clip0_74:2606"><rect width="24.444" height="24.444" fill="#fff" transform="translate(3.3335 2.22223)"/></clipPath></defs></svg>