<svg width="50" height="50" viewBox="0 0 50 50" fill="none" xmlns="http://www.w3.org/2000/svg">
<path d="M25.0795 47.5418C37.529 47.5418 47.6214 37.4494 47.6214 24.9999C47.6214 12.5504 37.529 2.45801 25.0795 2.45801C12.6299 2.45801 2.5376 12.5504 2.5376 24.9999C2.5376 37.4494 12.6299 47.5418 25.0795 47.5418Z" fill="url(#paint0_linear_589:594)"/>
<path fill-rule="evenodd" clip-rule="evenodd" d="M28.7915 9.88696H32.9806V14.8895H30.1172C27.8901 14.8895 27.4128 15.9426 27.4128 17.5224V20.9452H32.7685V26.3164H27.4128V40.1128H21.845V26.3163H17.1787V20.9452H21.845V16.9958C21.845 12.4146 24.6554 9.88696 28.7915 9.88696Z" fill="white"/>
<path style="mix-blend-mode:multiply" d="M45.8078 16.1299C45.9769 17.2457 46.0618 18.3726 46.0618 19.5012C46.0618 32.1424 35.5525 42.3901 22.5886 42.3901C15.2461 42.3901 8.69201 39.102 4.3877 33.9544C7.85211 41.9486 15.8119 47.5417 25.0792 47.5417C37.5287 47.5417 47.6211 37.4494 47.6211 24.9998C47.6248 21.9508 47.0079 18.9329 45.8078 16.1299Z" fill="url(#paint1_radial_589:594)"/>
<path d="M3.99491 21.5561C6.13944 27.0493 15.3446 28.5873 24.5552 24.9914C33.7658 21.3955 40.0375 13.7829 37.3493 8.53425C35.7611 5.4333 30.5705 2.64414 24.4467 2.46802H24.4132C14.5564 2.75416 6.28799 9.36881 3.52473 18.3898C3.45361 19.4667 3.61393 20.5464 3.99491 21.5561Z" fill="url(#paint2_radial_589:594)"/>
<defs>
<linearGradient id="paint0_linear_589:594" x1="2.5376" y1="24.9999" x2="47.6213" y2="24.9999" gradientUnits="userSpaceOnUse">
<stop stop-color="#3C87D1"/>
<stop offset="0.2015" stop-color="#377CC9"/>
<stop offset="0.5611" stop-color="#2B5DB3"/>
<stop offset="0.9944" stop-color="#193092"/>
</linearGradient>
<radialGradient id="paint1_radial_589:594" cx="0" cy="0" r="1" gradientUnits="userSpaceOnUse" gradientTransform="translate(26.0202 31.8291) rotate(-40.0917) scale(26.4188 20.0425)">
<stop/>
<stop offset="1" stop-color="white" stop-opacity="0"/>
</radialGradient>
<radialGradient id="paint2_radial_589:594" cx="0" cy="0" r="1" gradientUnits="userSpaceOnUse" gradientTransform="translate(20.7441 14.7012) scale(21.4244)">
<stop stop-color="white"/>
<stop offset="0.0736" stop-color="white" stop-opacity="0.824"/>
<stop offset="0.1652" stop-color="white" stop-opacity="0.633"/>
<stop offset="0.262" stop-color="white" stop-opacity="0.463"/>
<stop offset="0.362" stop-color="white" stop-opacity="0.32"/>
<stop offset="0.4663" stop-color="white" stop-opacity="0.203"/>
<stop offset="0.5761" stop-color="white" stop-opacity="0.113"/>
<stop offset="0.6941" stop-color="white" stop-opacity="0.05"/>
<stop offset="0.8259" stop-color="white" stop-opacity="0.012"/>
<stop offset="1" stop-color="white" stop-opacity="0"/>
</radialGradient>
</defs>
</svg>
