<svg xmlns="http://www.w3.org/2000/svg" width="56" height="56" fill="none" viewBox="0 0 56 56"><path fill="#3B5998" fill-rule="evenodd" d="M35.2713 18.648L32.6357 18.6497C30.569 18.6497 30.1683 19.6315 30.1683 21.0718V24.2498H35.098L34.4557 29.2285H30.1683V42H25.0285V29.2285H20.7305V24.2498H25.0285V20.58C25.0285 16.3188 27.6307 14 31.43 14C33.25 14 34.8145 14.1348 35.2713 14.196V18.648ZM28 0C12.537 0 0 12.5352 0 28C0 43.463 12.537 56 28 56C43.4647 56 56 43.463 56 28C56 12.5352 43.4647 0 28 0Z" clip-rule="evenodd"/></svg>