<svg width="56" height="56" viewBox="0 0 56 56" fill="none" xmlns="http://www.w3.org/2000/svg">
<path d="M28 0C43.4 0 56 12.6 56 28C56 43.4 43.4 56 28 56C12.6 56 0 43.3998 0 28C0 12.6002 12.6 0 28 0Z" fill="#DD4B39"/>
<path d="M42.1746 23.275V26.425H45.3245V29.5751H42.1746V32.7251H39.0246V29.5751H35.8745V26.425H39.0246V23.275H42.1746Z" fill="white"/>
<path d="M13.8248 35.8749C9.62476 31.6749 9.62476 24.3248 13.9997 20.125C17.1497 16.975 21.6996 16.2751 25.7247 17.85L27.2996 18.725L29.0496 19.9501L26.2496 22.7501L25.1997 22.0502C22.7497 20.4753 19.2496 20.8251 16.9748 23.1002C14.3497 25.7252 14.1748 30.4502 16.9748 33.2502C19.5999 36.0502 24.3249 36.0502 26.7748 33.2502C27.4747 32.5503 28.1748 31.5002 28.3497 30.4502V30.1002H22.0498V26.6003H32.0248L32.1997 27.4753V29.9252C32.0248 32.2003 31.1497 34.4753 29.5746 36.0502C25.3748 40.0749 18.0248 40.0749 13.8248 35.8749Z" fill="white"/>
</svg>
