<svg width="30" height="30" viewBox="0 0 30 30" fill="none" xmlns="http://www.w3.org/2000/svg">
<path d="M9.16488 0C10.3781 0.0100031 11.5736 0.300907 12.6634 0.85127C13.7532 1.40163 14.7095 2.19743 15.4618 3.18C16.214 2.19743 17.1703 1.40163 18.2601 0.85127C19.3499 0.300907 20.5454 0.0100031 21.7586 0C23.9958 0.057658 26.1195 1.02934 27.6633 2.70172C29.2071 4.37411 30.045 6.61052 29.993 8.92V9.41C30.0023 9.48971 30.0023 9.57029 29.993 9.65C29.8506 11.754 28.9968 13.7395 27.5808 15.26C24.5469 18.642 21.8198 22.304 19.4336 26.2L17.8836 28.61C17.6185 29.0226 17.2586 29.361 16.8361 29.5951C16.4135 29.8292 15.9413 29.9517 15.4618 29.9517C14.9822 29.9517 14.51 29.8292 14.0874 29.5951C13.6649 29.361 13.305 29.0226 13.0399 28.61L11.4899 26.2C9.11605 22.3056 6.40192 18.6437 3.38144 15.26C1.97697 13.7635 1.11191 11.8152 0.930502 9.74C0.901276 9.59152 0.901276 9.43848 0.930502 9.29C0.930502 9.17 0.930502 9.04 0.930502 8.92C0.878477 6.61052 1.71636 4.37411 3.26019 2.70172C4.80404 1.02934 6.92766 0.057658 9.16488 0ZM2.868 9.29V9.42C2.98599 11.0926 3.67213 12.6685 4.8055 13.87C7.91055 17.3379 10.6994 21.0938 13.1368 25.09L14.6868 27.5C14.7754 27.6361 14.8951 27.7477 15.0353 27.8248C15.1755 27.9019 15.3319 27.9422 15.4908 27.9422C15.6497 27.9422 15.8061 27.9019 15.9464 27.8248C16.0866 27.7477 16.2063 27.6361 16.2949 27.5L17.8449 25.09C20.2638 21.0963 23.0331 17.3405 26.118 13.87C27.2514 12.6685 27.9375 11.0926 28.0555 9.42V9.29C28.0555 9.17 28.0555 9.05 28.0555 8.92C28.1051 7.14162 27.4706 5.41529 26.2906 4.11853C25.1106 2.82176 23.4812 2.06006 21.7586 2C20.6336 2.01826 19.5342 2.34926 18.5761 2.95816C17.618 3.56706 16.8366 4.43133 16.3143 5.46C16.2312 5.61875 16.1082 5.75137 15.9581 5.8438C15.808 5.93623 15.6365 5.98503 15.4618 5.98503C15.287 5.98503 15.1155 5.93623 14.9654 5.8438C14.8153 5.75137 14.6923 5.61875 14.6093 5.46C14.0869 4.43133 13.3055 3.56706 12.3474 2.95816C11.3893 2.34926 10.2899 2.01826 9.16488 2C7.44233 2.06006 5.81291 2.82176 4.63292 4.11853C3.45292 5.41529 2.81836 7.14162 2.868 8.92V9.29Z" fill="#49B977"/>
</svg>
