<svg width="16" height="17" viewBox="0 0 16 17" fill="none" xmlns="http://www.w3.org/2000/svg">
<path d="M4.54088 0C5.20813 0.00567756 5.86567 0.170789 6.46505 0.483165C7.06443 0.79554 7.59037 1.24722 8.0041 1.80491C8.41783 1.24722 8.94377 0.79554 9.54315 0.483165C10.1425 0.170789 10.8001 0.00567756 11.4673 0C12.6978 0.0327256 13.8657 0.584232 14.7148 1.53345C15.5639 2.48266 16.0248 3.75201 15.9961 5.06282V5.34093C16.0013 5.38618 16.0013 5.43191 15.9961 5.47715C15.9178 6.67134 15.4483 7.79829 14.6695 8.66128C13.0008 10.5808 11.5009 12.6593 10.1886 14.8706L9.33611 16.2385C9.19031 16.4726 8.99237 16.6647 8.75996 16.7976C8.52754 16.9305 8.26787 17 8.0041 17C7.74033 17 7.48066 16.9305 7.24825 16.7976C7.01583 16.6647 6.8179 16.4726 6.6721 16.2385L5.81961 14.8706C4.51403 12.6602 3.02128 10.5818 1.36005 8.66128C0.587602 7.81188 0.111828 6.70607 0.0120564 5.52824C-0.00401878 5.44396 -0.00401878 5.3571 0.0120564 5.27282C0.0120564 5.20472 0.0120564 5.13093 0.0120564 5.06282C-0.0165577 3.75201 0.444267 2.48266 1.29336 1.53345C2.14246 0.584232 3.31044 0.0327256 4.54088 0Z" fill="white"/>
</svg>
