<svg xmlns="http://www.w3.org/2000/svg" width="50" height="50" fill="none" viewBox="0 0 50 50"><path fill="url(#paint0_linear_589:578)" d="M25 50C38.8071 50 50 38.8071 50 25C50 11.1929 38.8071 0 25 0C11.1929 0 0 11.1929 0 25C0 38.8071 11.1929 50 25 50Z"/><path fill="#fff" fill-rule="evenodd" d="M25 12.9738C28.9486 12.9738 29.4131 12.9738 30.9615 13.0504C32.4326 13.127 33.2068 13.3568 33.6713 13.5866C34.3681 13.8164 34.8326 14.1994 35.3746 14.659C35.9165 15.1952 36.2262 15.6547 36.4584 16.3442C36.6908 16.8804 36.9231 17.6464 37.0004 19.0252C37.0779 20.5572 37.0779 21.0168 37.0779 24.9234C37.0779 28.83 37.0779 29.2896 37.0004 30.8216C36.9231 32.277 36.6908 33.043 36.4584 33.5026C36.2262 34.192 35.8392 34.6516 35.3746 35.1878C34.8326 35.7241 34.3681 36.0304 33.6713 36.2602C33.1293 36.4901 32.3551 36.7198 30.9615 36.7963C29.4131 36.873 28.9486 36.873 25 36.873C21.0514 36.873 20.587 36.873 19.0385 36.7963C17.5675 36.7198 16.7934 36.49 16.3288 36.2602C15.632 36.0304 15.1674 35.6474 14.6254 35.1878C14.0835 34.6516 13.7738 34.1921 13.5415 33.5026C13.3093 32.9663 13.077 32.2004 12.9996 30.8216C12.9222 29.2896 12.9222 28.83 12.9222 24.9234C12.9222 21.0168 12.9222 20.5572 12.9996 19.0252C13.077 17.5698 13.3093 16.8038 13.5415 16.3442C13.7738 15.6548 14.1609 15.1952 14.6254 14.659C15.1674 14.1228 15.632 13.8164 16.3288 13.5866C16.8707 13.3568 17.6449 13.127 19.0385 13.0504C20.587 12.9738 21.0515 12.9738 25 12.9738ZM25 10.3694C20.974 10.3694 20.5095 10.3694 18.8837 10.446C17.3352 10.5226 16.2513 10.7524 15.3223 11.1354C14.3291 11.4917 13.4292 12.0678 12.6899 12.8206C11.9316 13.548 11.349 14.4387 10.9866 15.425C10.5996 16.3442 10.3672 17.4166 10.2898 18.9486C10.2123 20.4806 10.2124 21.0168 10.2124 25C10.2124 28.9833 10.2124 29.4427 10.2898 31.0514C10.3672 32.5834 10.5995 33.6558 10.9866 34.575C11.3491 35.5613 11.9316 36.452 12.6899 37.1794C13.4292 37.9323 14.329 38.5084 15.3223 38.8646C16.2513 39.2476 17.3352 39.4774 18.8837 39.5541C20.4321 39.6307 20.974 39.6306 25 39.6306C29.0259 39.6306 29.4905 39.6306 31.1164 39.5541C32.6648 39.4774 33.7487 39.2475 34.6778 38.8646C35.671 38.5084 36.5708 37.9323 37.3101 37.1794C38.0685 36.452 38.651 35.5613 39.0134 34.575C39.4006 33.6558 39.6328 32.5834 39.7103 31.0514C39.7877 29.5194 39.7876 28.9833 39.7876 25C39.7876 21.0168 39.7876 20.5572 39.7102 18.9486C39.6328 17.4166 39.4005 16.3442 39.0134 15.425C38.651 14.4387 38.0685 13.548 37.3101 12.8206C36.5708 12.0678 35.6709 11.4917 34.6777 11.1354C33.7487 10.7524 32.6648 10.5226 31.1163 10.446C29.4904 10.3694 29.026 10.3694 24.9999 10.3694" clip-rule="evenodd"/><path fill="#fff" fill-rule="evenodd" d="M25.0003 17.2998C20.7117 17.2998 17.2173 20.7571 17.2173 25.0001C17.2173 29.2431 20.7117 32.7004 25.0003 32.7004C29.2889 32.7004 32.7833 29.2431 32.7833 25.0001C32.7833 20.6786 29.2889 17.2998 25.0003 17.2998V17.2998ZM25.0003 29.9503C22.2206 29.9503 19.9175 27.7503 19.9175 24.9215C19.9175 22.0929 22.1412 19.8929 25.0003 19.8929C27.7799 19.8929 30.0831 22.093 30.0831 24.9215C30.0831 27.7503 27.7799 29.9503 25.0003 29.9503Z" clip-rule="evenodd"/><path fill="#fff" fill-rule="evenodd" d="M34.3399 17.2997C34.3432 17.6083 34.2547 17.9109 34.0857 18.1691C33.9166 18.4273 33.6747 18.6294 33.3905 18.7498C33.1064 18.8701 32.7928 18.9033 32.4898 18.8452C32.1867 18.787 31.9078 18.64 31.6884 18.423C31.469 18.2059 31.3191 17.9286 31.2577 17.6262C31.1963 17.3238 31.2261 17.0099 31.3435 16.7245C31.4608 16.4391 31.6603 16.195 31.9167 16.0232C32.173 15.8514 32.4746 15.7596 32.7832 15.7596C32.9875 15.7552 33.1905 15.7919 33.3803 15.8675C33.5701 15.9431 33.7428 16.0561 33.888 16.1998C34.0332 16.3434 34.1481 16.5149 34.2257 16.7038C34.3033 16.8928 34.3422 17.0955 34.3399 17.2997Z" clip-rule="evenodd"/><path style="mix-blend-mode:multiply" fill="url(#paint1_radial_589:578)" d="M47.9891 15.1628C48.1766 16.4003 48.2707 17.6501 48.2708 18.9017C48.2708 32.9214 36.6154 44.2866 22.2379 44.2866C14.0947 44.2866 6.82593 40.64 2.05225 34.9311C5.89444 43.797 14.7222 50 25.0001 50C38.8072 50 50.0001 38.8071 50.0001 25C50.0042 21.6185 49.32 18.2715 47.9891 15.1628Z"/><path fill="url(#paint2_radial_589:578)" d="M1.61632 21.1806C3.99471 27.2728 14.2037 28.9785 24.4187 24.9905C34.6336 21.0025 41.5893 12.5597 38.6079 6.73872C36.8465 3.29962 31.0899 0.206315 24.2983 0.0109863H24.2612C13.3296 0.328321 4.15941 7.66428 1.09489 17.6689C1.016 18.8633 1.1938 20.0607 1.61632 21.1806Z"/><defs><linearGradient id="paint0_linear_589:578" x1="7.322" x2="42.678" y1="42.678" y2="7.322" gradientUnits="userSpaceOnUse"><stop stop-color="#D6B43D"/><stop offset=".051" stop-color="#DBA93F"/><stop offset=".143" stop-color="#E88A45"/><stop offset=".164" stop-color="#EB8246"/><stop offset=".211" stop-color="#E7774D"/><stop offset=".293" stop-color="#DD5860"/><stop offset=".31" stop-color="#DB5164"/><stop offset=".464" stop-color="#D2466C"/><stop offset=".567" stop-color="#C93B73"/><stop offset=".607" stop-color="#CB3179"/><stop offset=".733" stop-color="#A23394"/><stop offset=".856" stop-color="#7F35AB"/><stop offset=".91" stop-color="#7D35AB"/><stop offset=".94" stop-color="#7537AA"/><stop offset=".964" stop-color="#673AA9"/><stop offset=".985" stop-color="#533DA8"/><stop offset="1" stop-color="#4041A6"/></linearGradient><radialGradient id="paint1_radial_589:578" cx="0" cy="0" r="1" gradientTransform="translate(26.0438 32.5739) rotate(-40.0917) scale(29.2997 22.2281)" gradientUnits="userSpaceOnUse"><stop/><stop offset="1" stop-color="#fff" stop-opacity="0"/></radialGradient><radialGradient id="paint2_radial_589:578" cx="0" cy="0" r="1" gradientTransform="translate(20.192 13.5782) scale(23.7607)" gradientUnits="userSpaceOnUse"><stop stop-color="#fff"/><stop offset=".074" stop-color="#fff" stop-opacity=".824"/><stop offset=".165" stop-color="#fff" stop-opacity=".633"/><stop offset=".262" stop-color="#fff" stop-opacity=".463"/><stop offset=".362" stop-color="#fff" stop-opacity=".32"/><stop offset=".466" stop-color="#fff" stop-opacity=".203"/><stop offset=".576" stop-color="#fff" stop-opacity=".113"/><stop offset=".694" stop-color="#fff" stop-opacity=".05"/><stop offset=".826" stop-color="#fff" stop-opacity=".012"/><stop offset="1" stop-color="#fff" stop-opacity="0"/></radialGradient></defs></svg>