<svg xmlns="http://www.w3.org/2000/svg" width="121" height="34" fill="none" viewBox="0 0 121 34"><path fill="#E5E5E5" d="M47.9521 18.3999C48.0517 18.5499 48.1015 18.6999 48.1015 18.8999C48.1015 19.1499 48.0517 19.3499 48.0019 19.4999C47.9023 19.6499 47.8027 19.7499 47.6533 19.8999C47.006 20.3499 45.9603 21.0499 44.5163 22.0499C44.0682 24.3499 43.5204 26.1499 42.8233 27.4999C42.1262 28.7999 41.2797 29.4999 40.234 29.4999C39.6863 29.4999 39.1883 29.3499 38.8398 28.9999C38.4912 28.6499 38.292 28.1999 38.292 27.6499C38.292 27.1499 38.3916 26.5999 38.6406 26.0499C38.8896 25.4999 39.2879 24.8999 39.9352 24.1999C40.5826 23.4999 41.4789 22.6999 42.6241 21.7999L42.6739 21.4999C41.7776 21.8499 40.9311 22.0499 40.0846 22.0499C38.8398 22.0499 37.7443 21.7999 36.7982 21.3499C35.8521 20.8499 35.1052 20.1999 34.6073 19.2999C34.1093 18.3999 33.8105 17.3999 33.8105 16.1999C33.8105 14.5499 34.1093 13.0999 34.7566 11.8499C35.3542 10.5999 36.2505 9.59985 37.2961 8.89985C38.3418 8.19985 39.5867 7.84985 40.9311 7.84985C42.2258 7.84985 43.1719 8.14985 43.8192 8.74985C44.4665 9.34985 44.7653 10.1499 44.7653 11.1499C44.7653 11.7999 44.6657 12.3499 44.4167 12.6999C44.1677 13.0999 43.8192 13.2999 43.4208 13.2999C43.1221 13.2999 42.8731 13.2499 42.7237 13.0999C42.5245 12.9499 42.4747 12.7499 42.4747 12.4999C42.4747 12.3999 42.4747 12.1999 42.5245 11.9499C42.5743 11.6499 42.6241 11.3999 42.6241 11.1999C42.6241 10.7499 42.4747 10.3499 42.2258 10.0999C41.927 9.84985 41.4789 9.69985 40.8315 9.69985C40.0348 9.69985 39.2879 9.94985 38.5908 10.3999C37.8937 10.8499 37.3459 11.5499 36.9476 12.4999C36.5492 13.3999 36.3501 14.4999 36.3501 15.7999C36.3501 17.1499 36.6986 18.1499 37.4455 18.8999C38.1924 19.6499 39.2381 19.9999 40.5826 19.9999C41.3295 19.9999 42.1262 19.8499 42.9727 19.4999L43.2217 17.4499H41.5287C41.2299 17.4499 40.9809 17.3999 40.8315 17.2499C40.6821 17.0999 40.5826 16.8499 40.5826 16.4999C40.5826 16.1999 40.6821 15.9499 40.8315 15.7499C40.9809 15.5499 41.2299 15.4999 41.4789 15.4999H44.5661C44.8151 15.4999 45.0142 15.5999 45.1636 15.7499C45.313 15.8999 45.3628 16.1499 45.3628 16.4499C45.313 16.7999 45.2134 17.5999 45.0142 18.8499L44.8151 20.0499C45.7114 19.3999 46.5081 18.7999 47.255 18.2999C47.4044 18.1999 47.504 18.1499 47.6533 18.1499C47.7529 18.1999 47.9023 18.2999 47.9521 18.3999ZM41.3295 26.8499C41.678 26.1999 41.9768 25.1499 42.2756 23.6999C41.4291 24.3999 40.8315 25.0499 40.483 25.6499C40.1344 26.2499 39.9352 26.7499 39.9352 27.1999C39.9352 27.6499 40.0846 27.8499 40.3834 27.8499C40.6821 27.8499 40.9809 27.4999 41.3295 26.8499Z"/><path fill="#E5E5E5" d="M47.3544 21.2C47.0058 20.7 46.8564 20 46.8564 19.15C46.8564 18.65 46.9062 18 47.0556 17.25C47.205 16.5 47.3544 15.75 47.5536 15.05C47.6532 14.7 47.8025 14.45 47.9519 14.3C48.1013 14.15 48.4001 14.1 48.7486 14.1C49.2964 14.1 49.5951 14.3 49.5951 14.65C49.5951 14.95 49.4955 15.55 49.2964 16.6C49.0474 17.8 48.898 18.65 48.898 19.1C48.898 19.45 48.9478 19.7 49.0474 19.85C49.147 20.05 49.2964 20.1 49.4955 20.1C49.6947 20.1 49.9437 19.95 50.2425 19.7C50.5412 19.4 50.9396 19 51.4375 18.4C51.5869 18.25 51.7363 18.15 51.8857 18.15C52.035 18.15 52.1346 18.2 52.2342 18.35C52.3338 18.5 52.3836 18.65 52.3836 18.9C52.3836 19.35 52.284 19.7 52.0848 19.95C50.9894 21.3 49.9437 21.95 48.9976 21.95C48.2009 21.95 47.7029 21.7 47.3544 21.2ZM48.0017 12.7C47.7527 12.5 47.6532 12.2 47.6532 11.8C47.6532 11.4 47.8025 11.1 48.1013 10.85C48.4001 10.6 48.7984 10.45 49.2466 10.45C49.6449 10.45 49.9935 10.55 50.2425 10.75C50.4914 10.95 50.6408 11.25 50.6408 11.6C50.6408 12.05 50.4914 12.4 50.1927 12.65C49.8939 12.9 49.5453 13.05 49.0474 13.05C48.5992 13.05 48.2507 12.9 48.0017 12.7Z"/><path fill="#E5E5E5" d="M59.8032 18.3999C59.9027 18.5499 59.9027 18.6999 59.9027 18.8999C59.9027 19.1499 59.8529 19.3499 59.8032 19.4999C59.7036 19.6499 59.604 19.7499 59.4546 19.8999C58.5085 20.5499 57.8114 20.9999 57.3632 21.3499L56.3176 22.0499C55.9192 24.3499 55.3715 26.1499 54.6743 27.4499C53.9772 28.7499 53.1307 29.3999 52.085 29.3999C51.5373 29.3999 51.0394 29.2499 50.6908 28.8999C50.3422 28.5499 50.1431 28.0999 50.1431 27.5499C50.1431 26.7499 50.4418 25.8999 51.0892 24.9999C51.6867 24.0999 52.8818 22.9999 54.5748 21.6499L54.6743 20.9999C54.4752 21.2999 54.2262 21.5499 53.9274 21.6999C53.6287 21.8499 53.3299 21.9499 53.0311 21.9499C52.334 21.9499 51.7863 21.6999 51.3879 21.1999C50.9896 20.6999 50.7904 20.0499 50.7904 19.2499C50.7904 18.3499 50.9896 17.4999 51.3879 16.7499C51.7863 15.9499 52.334 15.2999 53.0311 14.8499C53.7283 14.3499 54.4254 14.1499 55.1723 14.1499C55.4213 14.1499 55.5706 14.1999 55.6702 14.2999C55.7698 14.3999 55.8196 14.5499 55.8694 14.7999C56.0686 14.7499 56.3176 14.7499 56.6163 14.7499C56.9151 14.7499 57.0645 14.7999 57.2139 14.8499C57.3134 14.9499 57.3632 15.0999 57.3632 15.3499C57.3632 15.4999 57.3632 15.5999 57.3632 15.6499C57.3134 15.9999 57.1641 16.8499 56.9649 18.2499C56.9151 18.4999 56.8653 18.7999 56.8155 19.0999C56.7657 19.3999 56.7159 19.7499 56.6661 20.0999C57.5126 19.4499 58.3591 18.8499 59.106 18.3499C59.2554 18.2499 59.355 18.1999 59.5044 18.1999C59.604 18.1999 59.7036 18.2999 59.8032 18.3999ZM53.1805 26.8499C53.5291 26.1999 53.8776 25.0999 54.1764 23.6499C53.3299 24.3999 52.7324 25.0499 52.334 25.6499C51.9357 26.2499 51.7863 26.7499 51.7863 27.1999C51.7863 27.3999 51.8361 27.5499 51.8859 27.6499C51.9357 27.7499 52.085 27.8499 52.2344 27.8499C52.5332 27.8499 52.832 27.4999 53.1805 26.8499ZM54.3258 19.7999C54.5748 19.4999 54.7241 19.0499 54.8237 18.4499L55.3715 15.5999C54.9233 15.5999 54.4752 15.7999 54.1266 16.0999C53.7283 16.4499 53.4295 16.8999 53.1805 17.4499C52.9315 17.9999 52.832 18.5999 52.832 19.1999C52.832 19.5499 52.8818 19.7999 53.0311 19.9499C53.1805 20.0999 53.3797 20.1999 53.5789 20.1999C53.8776 20.2999 54.1266 20.1499 54.3258 19.7999Z"/><path fill="#E5E5E5" d="M80.5177 14.8499C80.6173 14.9499 80.6671 15.0999 80.6671 15.2999C80.6671 15.5999 80.5675 15.8499 80.4181 16.0499C80.2687 16.2499 79.97 16.3999 79.6214 16.3999C78.7251 16.3999 77.9782 16.3499 77.2811 16.1999C76.4844 17.8499 75.5881 19.2499 74.4926 20.2999C73.3971 21.3999 72.3515 21.9499 71.256 21.9499C70.2601 21.9499 69.563 21.4499 69.065 20.3999C68.5671 19.3499 68.3181 17.9499 68.2185 16.2499C67.5712 18.1999 66.8243 19.5999 65.9778 20.5499C65.1313 21.4999 64.235 21.9499 63.3387 21.9499C62.293 21.9499 61.4963 21.2999 60.9486 19.9499C60.4008 18.5999 60.1519 16.8499 60.1519 14.5999C60.1519 12.9499 60.3012 11.1999 60.6 9.1999C60.6996 8.6499 60.7992 8.2499 60.9984 8.0499C61.1975 7.8499 61.5461 7.7499 61.9444 7.7499C62.293 7.7499 62.542 7.7999 62.6914 7.9499C62.8905 8.0999 62.9403 8.3499 62.9403 8.7499C62.9403 8.8499 62.9403 8.9999 62.8905 9.1999C62.542 11.4999 62.3926 13.3999 62.3926 14.9999C62.3926 16.4999 62.542 17.6499 62.7909 18.4499C63.0399 19.2499 63.3885 19.6499 63.8366 19.6499C64.235 19.6499 64.6831 19.2499 65.2309 18.4499C65.7786 17.6499 66.3263 16.3999 66.8741 14.7999C67.4218 13.1999 67.87 11.2999 68.2683 9.0499C68.3679 8.5499 68.5173 8.1999 68.7663 7.9999C69.0152 7.7999 69.314 7.6999 69.7124 7.6999C70.0609 7.6999 70.3099 7.7499 70.4593 7.8999C70.6087 8.0499 70.7082 8.2499 70.7082 8.5499C70.7082 8.7499 70.7082 8.8499 70.6584 8.9499C70.3597 10.7499 70.2103 12.5499 70.2103 14.3999C70.2103 15.6499 70.2601 16.5999 70.3099 17.3499C70.4095 18.0999 70.5589 18.6499 70.8078 18.9999C71.0568 19.3999 71.4054 19.5499 71.8535 19.5499C72.4012 19.5499 72.9988 19.1499 73.6461 18.3499C74.2934 17.5499 74.891 16.5499 75.4387 15.3499C74.7416 14.9499 74.2436 14.3999 73.8951 13.6999C73.5465 13.0499 73.3971 12.2499 73.3971 11.3999C73.3971 10.4999 73.5465 9.7999 73.7955 9.1999C74.0445 8.5999 74.4428 8.1499 74.891 7.8499C75.3391 7.5499 75.8868 7.3999 76.4346 7.3999C77.1317 7.3999 77.6794 7.6499 78.1276 8.1499C78.5259 8.6499 78.7251 9.3499 78.7251 10.2499C78.7251 11.4999 78.4761 12.8999 77.9284 14.4499C78.4761 14.5499 79.1733 14.5999 79.9202 14.5999C80.2189 14.6999 80.4181 14.7499 80.5177 14.8499ZM76.1358 13.8499C76.584 12.5999 76.7831 11.5999 76.7831 10.7499C76.7831 10.2999 76.7333 9.9499 76.584 9.7499C76.4844 9.5499 76.2852 9.4499 76.086 9.4499C75.7873 9.4499 75.5383 9.5999 75.3391 9.9499C75.1399 10.2999 75.0403 10.7999 75.0403 11.4499C75.0901 12.4999 75.4387 13.2999 76.1358 13.8499Z"/><path fill="#E5E5E5" d="M79.5717 21.2C79.2231 20.7 79.0737 20 79.0737 19.15C79.0737 18.65 79.1235 18 79.2729 17.25C79.4223 16.5 79.5717 15.75 79.7708 15.05C79.8704 14.7 80.0198 14.45 80.1692 14.3C80.3186 14.15 80.6174 14.1 80.9659 14.1C81.5136 14.1 81.8124 14.3 81.8124 14.65C81.8124 14.95 81.7128 15.55 81.5136 16.6C81.2647 17.8 81.1153 18.65 81.1153 19.1C81.1153 19.45 81.1651 19.7 81.2647 19.85C81.3643 20.05 81.5136 20.1 81.7128 20.1C81.912 20.1 82.161 19.95 82.4597 19.7C82.7585 19.4 83.1569 19 83.6548 18.4C83.8042 18.25 83.9536 18.15 84.1029 18.15C84.2523 18.15 84.3519 18.2 84.4515 18.35C84.5511 18.5 84.6009 18.65 84.6009 18.9C84.6009 19.35 84.5013 19.7 84.3021 19.95C83.2067 21.3 82.161 21.95 81.2149 21.95C80.4182 21.95 79.9202 21.7 79.5717 21.2ZM80.219 12.7C79.97 12.5 79.8704 12.2 79.8704 11.8C79.8704 11.4 80.0198 11.1 80.3186 10.85C80.6174 10.6 81.0157 10.45 81.4639 10.45C81.8622 10.45 82.2108 10.55 82.4597 10.75C82.7087 10.95 82.8581 11.25 82.8581 11.6C82.8581 12.05 82.7087 12.4 82.4099 12.65C82.1112 12.9 81.7626 13.05 81.2647 13.05C80.8165 13.05 80.468 12.9 80.219 12.7Z"/><path fill="#E5E5E5" d="M89.4307 20.35C89.5801 20.55 89.6299 20.75 89.6299 21C89.6299 21.3 89.5801 21.5 89.4307 21.75C89.2813 22 89.1319 22.05 88.9327 22.05C88.5344 22.05 88.1858 22.05 87.8373 22.05C87.4887 22.05 87.1899 22.05 86.941 22C85.9451 21.95 85.1982 21.95 84.7998 21.95C84.6504 21.95 84.4513 22 84.1525 22.1C83.8039 22.2 83.555 22.25 83.4056 22.25C82.808 22.25 82.5093 21.85 82.5093 21.1C82.5093 20.6 82.7085 20 83.057 19.35C83.4056 18.7 83.9035 18.05 84.501 17.45C85.0986 16.85 85.6961 16.35 86.3434 15.9L84.0031 15.95C83.7541 15.95 83.555 15.9 83.4554 15.7C83.306 15.5 83.2562 15.3 83.2562 15.05C83.2562 14.8 83.306 14.55 83.4554 14.35C83.6048 14.15 83.7541 14.05 83.9533 14.05C84.4513 14.05 85.0488 14.1 85.7459 14.15C85.8455 14.15 86.1443 14.2 86.5426 14.2C86.941 14.25 87.3393 14.25 87.6381 14.25C87.7377 14.25 87.9369 14.2 88.2854 14.1C88.3352 14.1 88.4348 14.05 88.5842 14C88.7336 13.95 88.8829 13.95 88.9825 13.95C89.1817 13.95 89.2813 14.05 89.4307 14.2C89.5303 14.35 89.5801 14.6 89.5801 14.9C89.5801 15.25 89.4805 15.55 89.3311 15.75C89.1817 15.95 88.8829 16.15 88.5842 16.3C88.1858 16.5 87.7377 16.8 87.2397 17.2C86.7418 17.65 86.2438 18.1 85.7459 18.65C85.2978 19.2 84.9492 19.65 84.7002 20.15L88.8829 19.95C89.0821 20.05 89.2813 20.15 89.4307 20.35Z"/><path fill="#E5E5E5" d="M91.0741 21.5499C90.8252 21.2999 90.7256 20.9499 90.7256 20.4999C90.7256 19.9999 90.875 19.5999 91.1239 19.2999C91.4227 18.9999 91.8211 18.8499 92.319 18.8499C92.8169 18.8499 93.1655 18.9499 93.4145 19.1999C93.6634 19.4499 93.763 19.7999 93.763 20.2499C93.763 20.7499 93.6136 21.1499 93.3149 21.4499C93.0161 21.7499 92.6178 21.8999 92.1198 21.8999C91.6717 21.9499 91.3231 21.8499 91.0741 21.5499Z"/><path fill="#E5E5E5" d="M95.5555 21.0499C94.9579 20.4499 94.6592 19.5999 94.6592 18.5999C94.6592 17.6999 94.8584 16.8999 95.2069 16.2499C95.5555 15.5499 96.0036 15.0499 96.6012 14.6999C97.1489 14.3499 97.7464 14.1499 98.3937 14.1499C98.9913 14.1499 99.4892 14.3499 99.788 14.6999C100.087 15.0499 100.286 15.4999 100.286 16.0999C100.286 16.5499 100.186 16.9499 99.9872 17.2999C99.788 17.5999 99.539 17.7999 99.1904 17.7999C98.9913 17.7999 98.7921 17.7499 98.6925 17.6499C98.5431 17.5499 98.4933 17.3999 98.4933 17.2499C98.4933 17.1499 98.4933 17.0999 98.5431 16.9999C98.5431 16.8999 98.5929 16.8499 98.5929 16.7999C98.6427 16.6499 98.6925 16.4999 98.6925 16.3499C98.6925 16.1999 98.6427 16.0999 98.5929 15.9999C98.5431 15.8999 98.4435 15.8999 98.2942 15.8999C98.0452 15.8999 97.7962 15.9999 97.597 16.2499C97.3979 16.4999 97.1987 16.7999 97.0493 17.1499C96.8999 17.5499 96.8501 17.9499 96.8501 18.4499C96.8501 19.7499 97.3979 20.3999 98.5431 20.3999C98.9913 20.3999 99.4892 20.2499 99.9872 19.9499C100.535 19.6499 101.033 19.1999 101.531 18.5999C101.68 18.4499 101.83 18.3499 101.979 18.3499C102.128 18.3499 102.228 18.3999 102.327 18.5499C102.427 18.6999 102.477 18.8499 102.477 19.0999C102.477 19.4999 102.377 19.8499 102.178 20.1499C101.68 20.7999 101.033 21.2999 100.336 21.6499C99.5888 21.9999 98.8917 22.1499 98.2444 22.1499C96.9995 21.9499 96.2028 21.6499 95.5555 21.0499Z"/><path fill="#E5E5E5" d="M109.846 16.9999C109.946 17.1499 109.946 17.3499 109.946 17.5499C109.946 18.0999 109.796 18.3999 109.448 18.4999C108.801 18.7499 108.054 18.8499 107.257 18.8999C107.058 19.8499 106.61 20.5999 106.012 21.1499C105.415 21.6999 104.668 21.9999 103.921 21.9999C103.273 21.9999 102.676 21.8499 102.228 21.4999C101.78 21.1499 101.381 20.7499 101.182 20.1999C100.933 19.6499 100.833 19.0999 100.833 18.4499C100.833 17.5999 100.983 16.8499 101.331 16.1999C101.63 15.5499 102.078 14.9999 102.676 14.6499C103.224 14.2999 103.871 14.0999 104.568 14.0999C105.415 14.0999 106.062 14.3999 106.61 14.9499C107.108 15.5499 107.406 16.2499 107.506 17.0999C108.004 17.0499 108.651 16.9499 109.348 16.7499C109.448 16.7499 109.498 16.6999 109.597 16.6999C109.647 16.7999 109.747 16.8499 109.846 16.9999ZM104.966 19.7499C105.215 19.4499 105.415 19.0499 105.464 18.4999C105.116 18.2499 104.867 17.9499 104.668 17.5999C104.468 17.1999 104.419 16.7999 104.419 16.3999C104.419 16.1999 104.419 16.0499 104.468 15.8499H104.369C103.921 15.8499 103.572 16.0499 103.273 16.4999C102.975 16.9499 102.825 17.5499 102.825 18.2999C102.825 18.8999 102.925 19.3999 103.174 19.6999C103.423 19.9999 103.672 20.1999 104.02 20.1999C104.419 20.1999 104.717 20.0499 104.966 19.7499Z"/><path fill="#E5E5E5" d="M108.801 21.2999C108.651 20.8499 108.552 20.1499 108.552 19.1499C108.552 17.6999 108.751 16.3499 109.149 15.0499C109.249 14.7499 109.398 14.4999 109.647 14.3499C109.896 14.1999 110.195 14.1499 110.593 14.1499C110.793 14.1499 110.992 14.1999 111.041 14.2499C111.141 14.2999 111.191 14.3999 111.191 14.5499C111.191 14.7499 111.091 15.1499 110.942 15.7499C110.842 16.1999 110.743 16.5999 110.693 16.8999C110.643 17.2499 110.593 17.6499 110.544 18.0999C110.842 17.2499 111.191 16.4999 111.589 15.8999C111.988 15.2999 112.436 14.8499 112.884 14.5499C113.332 14.2499 113.73 14.0999 114.129 14.0999C114.527 14.0999 114.776 14.1999 114.925 14.3499C115.075 14.5499 115.174 14.7999 115.174 15.1499C115.174 15.4999 115.075 16.1499 114.876 17.0999C114.776 17.4999 114.726 17.7999 114.676 17.9999C115.025 17.0499 115.423 16.2999 115.872 15.6999C116.32 15.0999 116.768 14.6999 117.166 14.4499C117.614 14.1999 118.013 14.0999 118.361 14.0999C118.71 14.0999 118.959 14.1999 119.158 14.3499C119.357 14.5499 119.407 14.7999 119.407 15.1499C119.407 15.4499 119.357 15.9999 119.208 16.7999C119.108 17.4999 119.009 18.0999 118.959 18.6999C118.909 19.2999 118.859 19.9999 118.859 20.6999C118.859 21.0999 118.76 21.3999 118.61 21.5999C118.461 21.7999 118.162 21.8499 117.764 21.8499C117.415 21.8499 117.116 21.7499 116.967 21.5499C116.818 21.3499 116.718 21.0999 116.718 20.6999C116.718 20.2499 116.818 19.4999 116.967 18.4999C117.116 17.5999 117.166 17.0499 117.166 16.7999C117.166 16.5999 117.116 16.5499 116.967 16.5499C116.818 16.5499 116.618 16.7499 116.369 17.0999C116.12 17.4499 115.822 17.9499 115.573 18.5499C115.324 19.1499 115.075 19.7999 114.925 20.4999C114.826 21.0499 114.676 21.3999 114.527 21.5499C114.378 21.7499 114.129 21.7999 113.78 21.7999C113.432 21.7999 113.133 21.6499 112.983 21.2999C112.784 20.9499 112.734 20.5499 112.734 20.0499C112.734 19.6499 112.784 18.9999 112.884 18.1999C112.983 17.4999 113.033 16.9999 113.033 16.7999C113.033 16.5999 112.983 16.5499 112.834 16.5499C112.685 16.5499 112.436 16.7499 112.187 17.1499C111.938 17.5499 111.689 18.0499 111.44 18.6999C111.191 19.2999 110.992 19.9499 110.892 20.5499C110.792 21.0499 110.643 21.3999 110.494 21.5999C110.344 21.7999 110.095 21.8499 109.747 21.8499C109.299 21.9499 109 21.7499 108.801 21.2999Z"/><path fill="#49B977" d="M14.0422 18.85C14.9385 20.35 14.4903 22.3 12.9965 23.25C11.5027 24.2 9.56071 23.75 8.61462 22.2L1.44425 10.65C0.547957 9.15 0.996105 7.2 2.48993 6.25C2.98787 5.95 3.58541 5.75 4.18294 5.75C5.22861 5.75 6.27429 6.3 6.87183 7.25L14.0422 18.85Z"/><path fill="#49B977" d="M23.4533 22.75C21.9595 23.7 20.0175 23.25 19.0714 21.7L11.9011 10.15C10.955 8.65 11.4031 6.7 12.9468 5.75C13.4447 5.45 14.0422 5.25 14.59 5.25C15.6356 5.25 16.6813 5.8 17.2789 6.75L24.4492 18.3C25.3953 19.85 24.9472 21.8 23.4533 22.75Z"/></svg>