<svg xmlns="http://www.w3.org/2000/svg" width="172" height="35" fill="none" viewBox="0 0 172 35"><path fill="#404041" d="M67.9283 18.9515C68.0723 19.1677 68.1443 19.3838 68.1443 19.6721C68.1443 20.0324 68.0723 20.3206 68.0003 20.5368C67.8562 20.753 67.7122 20.8971 67.4962 21.1132C66.5599 21.7618 65.0476 22.7706 62.9591 24.2118C62.311 27.5265 61.5188 30.1206 60.5106 32.0662C59.5023 33.9397 58.2781 34.9485 56.7657 34.9485C55.9735 34.9485 55.2534 34.7324 54.7492 34.228C54.2451 33.7235 53.9571 33.075 53.9571 32.2824C53.9571 31.5618 54.1011 30.7691 54.4612 29.9765C54.8213 29.1838 55.3974 28.3191 56.3336 27.3103C57.2698 26.3015 58.5661 25.1485 60.2225 23.8515L60.2945 23.4191C58.9982 23.9235 57.7739 24.2118 56.5497 24.2118C54.7492 24.2118 53.1649 23.8515 51.7966 23.203C50.4283 22.4824 49.348 21.5456 48.6278 20.2485C47.9077 18.9515 47.4756 17.5103 47.4756 15.7809C47.4756 13.403 47.9077 11.3132 48.8439 9.51178C49.7081 7.71031 51.0044 6.26913 52.5167 5.26031C54.0291 4.25148 55.8295 3.74707 57.7739 3.74707C59.6464 3.74707 61.0147 4.17942 61.9509 5.04413C62.8871 5.90884 63.3192 7.06178 63.3192 8.50295C63.3192 9.43972 63.1752 10.2324 62.8151 10.7368C62.455 11.3132 61.9509 11.6015 61.3748 11.6015C60.9427 11.6015 60.5826 11.5294 60.3665 11.3132C60.0785 11.0971 60.0064 10.8088 60.0064 10.4485C60.0064 10.3044 60.0064 10.0162 60.0785 9.65589C60.1505 9.22354 60.2225 8.86325 60.2225 8.57501C60.2225 7.92648 60.0064 7.35001 59.6464 6.98972C59.2143 6.62942 58.5661 6.41325 57.6299 6.41325C56.4776 6.41325 55.3974 6.77354 54.3892 7.42207C53.3809 8.0706 52.5887 9.07942 52.0126 10.4485C51.4365 11.7456 51.1484 13.3309 51.1484 15.2044C51.1484 17.15 51.6525 18.5912 52.7328 19.6721C53.813 20.753 55.3254 21.2574 57.2698 21.2574C58.3501 21.2574 59.5023 21.0412 60.7266 20.5368L61.0867 17.5824H58.6381C58.206 17.5824 57.846 17.5103 57.6299 17.2941C57.4139 17.078 57.2698 16.7177 57.2698 16.2132C57.2698 15.7809 57.4139 15.4206 57.6299 15.1324C57.846 14.8441 58.206 14.7721 58.5661 14.7721H63.0311C63.3912 14.7721 63.6793 14.9162 63.8953 15.1324C64.1114 15.3485 64.1834 15.7088 64.1834 16.1412C64.1114 16.6456 63.9674 17.7985 63.6793 19.6L63.3912 21.3294C64.6875 20.3927 65.8398 19.528 66.92 18.8074C67.1361 18.6632 67.2801 18.5912 67.4962 18.5912C67.6402 18.6632 67.8562 18.8074 67.9283 18.9515ZM58.3501 31.1294C58.8542 30.1927 59.2863 28.6794 59.7184 26.5897C58.4941 27.5985 57.6299 28.5353 57.1258 29.4C56.6217 30.2647 56.3336 30.9853 56.3336 31.6338C56.3336 32.2824 56.5497 32.5706 56.9818 32.5706C57.4139 32.5706 57.846 32.0662 58.3501 31.1294Z"/><path fill="#404041" d="M67.0639 22.9868C66.5598 22.2662 66.3438 21.2574 66.3438 20.0324C66.3438 19.3118 66.4158 18.375 66.6318 17.2941C66.8479 16.2133 67.0639 15.1324 67.352 14.1236C67.496 13.6191 67.7121 13.2588 67.9281 13.0427C68.1442 12.8265 68.5763 12.7544 69.0804 12.7544C69.8726 12.7544 70.3047 13.0427 70.3047 13.5471C70.3047 13.9794 70.1606 14.8441 69.8726 16.3574C69.5125 18.0868 69.2964 19.3118 69.2964 19.9603C69.2964 20.4647 69.3684 20.825 69.5125 21.0412C69.6565 21.3294 69.8726 21.4015 70.1606 21.4015C70.4487 21.4015 70.8088 21.1853 71.2409 20.825C71.673 20.3927 72.2491 19.8162 72.9693 18.9515C73.1853 18.7353 73.4014 18.5912 73.6174 18.5912C73.8335 18.5912 73.9775 18.6633 74.1215 18.8794C74.2656 19.0956 74.3376 19.3118 74.3376 19.6721C74.3376 20.3206 74.1935 20.825 73.9055 21.1853C72.3211 23.1309 70.8088 24.0677 69.4405 24.0677C68.2882 24.0677 67.568 23.7074 67.0639 22.9868ZM68.0001 10.7368C67.64 10.4486 67.496 10.0162 67.496 9.43973C67.496 8.86326 67.7121 8.43091 68.1442 8.07061C68.5763 7.71032 69.1524 7.49414 69.8005 7.49414C70.3767 7.49414 70.8808 7.63826 71.2409 7.92649C71.6009 8.21473 71.817 8.64708 71.817 9.15149C71.817 9.80002 71.601 10.3044 71.1689 10.6647C70.7368 11.025 70.2326 11.2412 69.5125 11.2412C68.8643 11.2412 68.3602 11.025 68.0001 10.7368Z"/><path fill="#404041" d="M85.0684 18.9514C85.2124 19.1676 85.2124 19.3838 85.2124 19.672C85.2124 20.0323 85.1404 20.3205 85.0684 20.5367C84.9243 20.7529 84.7803 20.897 84.5643 21.1132C83.1959 22.0499 82.1877 22.6985 81.5396 23.2029L80.0272 24.2117C79.4511 27.5264 78.6589 30.1205 77.6507 31.9941C76.6424 33.8676 75.4182 34.8044 73.9058 34.8044C73.1136 34.8044 72.3935 34.5882 71.8894 34.0838C71.3852 33.5794 71.0972 32.9308 71.0972 32.1382C71.0972 30.9852 71.5293 29.7602 72.4655 28.4632C73.3297 27.1661 75.0581 25.5808 77.5066 23.6352L77.6507 22.6985C77.3626 23.1308 77.0025 23.4911 76.5704 23.7073C76.1383 23.9235 75.7062 24.0676 75.2741 24.0676C74.2659 24.0676 73.4737 23.7073 72.8976 22.9867C72.3214 22.2661 72.0334 21.3294 72.0334 20.1764C72.0334 18.8794 72.3214 17.6544 72.8976 16.5735C73.4737 15.4205 74.2659 14.4838 75.2741 13.8352C76.2824 13.1147 77.2906 12.8264 78.3708 12.8264C78.7309 12.8264 78.947 12.8985 79.091 13.0426C79.235 13.1867 79.307 13.4029 79.3791 13.7632C79.6671 13.6911 80.0272 13.6911 80.4593 13.6911C80.8914 13.6911 81.1075 13.7632 81.3235 13.8352C81.4675 13.9794 81.5396 14.1955 81.5396 14.5558C81.5396 14.772 81.5396 14.9161 81.5396 14.9882C81.4675 15.4926 81.2515 16.7176 80.9634 18.7352C80.8914 19.0955 80.8194 19.5279 80.7474 19.9602C80.6754 20.3926 80.6033 20.897 80.5313 21.4014C81.7556 20.4647 82.9799 19.5999 84.0601 18.8794C84.2762 18.7352 84.4202 18.6632 84.6363 18.6632C84.7803 18.6632 84.9243 18.8073 85.0684 18.9514ZM75.4902 31.1294C75.9943 30.1926 76.4984 28.6073 76.9305 26.5176C75.7062 27.5985 74.842 28.5352 74.2659 29.3999C73.6898 30.2647 73.4737 30.9852 73.4737 31.6338C73.4737 31.922 73.5457 32.1382 73.6177 32.2823C73.6898 32.4264 73.9058 32.5705 74.1219 32.5705C74.554 32.5705 74.9861 32.0661 75.4902 31.1294ZM77.1466 20.9691C77.5066 20.5367 77.7227 19.8882 77.8667 19.0235L78.6589 14.9161C78.0107 14.9161 77.3626 15.2044 76.8585 15.6367C76.2824 16.1411 75.8503 16.7897 75.4902 17.5823C75.1301 18.3749 74.9861 19.2397 74.9861 20.1044C74.9861 20.6088 75.0581 20.9691 75.2741 21.1852C75.4902 21.4014 75.7782 21.5455 76.0663 21.5455C76.4984 21.6897 76.8585 21.4735 77.1466 20.9691Z"/><path fill="#404041" d="M115.027 13.8353C115.171 13.9794 115.243 14.1956 115.243 14.4838C115.243 14.9162 115.099 15.2765 114.883 15.5647C114.667 15.8529 114.235 16.0691 113.731 16.0691C112.434 16.0691 111.354 15.997 110.346 15.7809C109.194 18.1588 107.897 20.1765 106.313 21.6897C104.729 23.275 103.216 24.0676 101.632 24.0676C100.192 24.0676 99.1834 23.347 98.4632 21.8338C97.743 20.3206 97.383 18.3029 97.2389 15.8529C96.3027 18.6632 95.2225 20.6809 93.9982 22.05C92.7739 23.4191 91.4776 24.0676 90.1813 24.0676C88.669 24.0676 87.5167 23.1309 86.7245 21.1853C85.9323 19.2397 85.5723 16.7176 85.5723 13.475C85.5723 11.097 85.7883 8.57498 86.2204 5.69263C86.3644 4.89998 86.5085 4.32351 86.7965 4.03528C87.0846 3.74704 87.5887 3.60292 88.1649 3.60292C88.669 3.60292 89.0291 3.67498 89.2451 3.89116C89.5332 4.10733 89.6052 4.46763 89.6052 5.0441C89.6052 5.18822 89.6052 5.40439 89.5332 5.69263C89.0291 9.00733 88.813 11.7456 88.813 14.0515C88.813 16.2132 89.0291 17.8706 89.3891 19.0235C89.7492 20.1765 90.2533 20.7529 90.9015 20.7529C91.4776 20.7529 92.1258 20.1765 92.9179 19.0235C93.7101 17.8706 94.5023 16.0691 95.2945 13.7632C96.0867 11.4573 96.7348 8.7191 97.311 5.47645C97.455 4.75586 97.671 4.25145 98.0311 3.96322C98.3912 3.67498 98.8233 3.53086 99.3994 3.53086C99.9035 3.53086 100.264 3.60292 100.48 3.8191C100.696 4.03528 100.84 4.32351 100.84 4.75586C100.84 5.0441 100.84 5.18822 100.768 5.33233C100.336 7.92645 100.12 10.5206 100.12 13.1867C100.12 14.9882 100.192 16.3573 100.264 17.4382C100.408 18.5191 100.624 19.3117 100.984 19.8162C101.344 20.3926 101.848 20.6088 102.496 20.6088C103.288 20.6088 104.153 20.0323 105.089 18.8794C106.025 17.7265 106.889 16.2853 107.681 14.5559C106.673 13.9794 105.953 13.1867 105.449 12.1779C104.945 11.2412 104.729 10.0882 104.729 8.86322C104.729 7.56616 104.945 6.55733 105.305 5.69263C105.665 4.82792 106.241 4.17939 106.889 3.74704C107.537 3.31469 108.329 3.09851 109.122 3.09851C110.13 3.09851 110.922 3.4588 111.57 4.17939C112.146 4.89998 112.434 5.9088 112.434 7.20586C112.434 9.00733 112.074 11.025 111.282 13.2588C112.074 13.4029 113.083 13.475 114.163 13.475C114.595 13.6191 114.883 13.6912 115.027 13.8353ZM108.69 12.3941C109.338 10.5926 109.626 9.15145 109.626 7.92645C109.626 7.27792 109.554 6.77351 109.338 6.48528C109.194 6.19704 108.906 6.05292 108.618 6.05292C108.185 6.05292 107.825 6.2691 107.537 6.77351C107.249 7.27792 107.105 7.99851 107.105 8.93528C107.177 10.4485 107.681 11.6015 108.69 12.3941Z"/><path fill="#404041" d="M113.659 22.9868C113.155 22.2662 112.938 21.2574 112.938 20.0324C112.938 19.3118 113.01 18.375 113.227 17.2941C113.443 16.2133 113.659 15.1324 113.947 14.1236C114.091 13.6191 114.307 13.2588 114.523 13.0427C114.739 12.8265 115.171 12.7544 115.675 12.7544C116.467 12.7544 116.899 13.0427 116.899 13.5471C116.899 13.9794 116.755 14.8441 116.467 16.3574C116.107 18.0868 115.891 19.3118 115.891 19.9603C115.891 20.4647 115.963 20.825 116.107 21.0412C116.251 21.3294 116.467 21.4015 116.755 21.4015C117.043 21.4015 117.403 21.1853 117.836 20.825C118.268 20.3927 118.844 19.8162 119.564 18.9515C119.78 18.7353 119.996 18.5912 120.212 18.5912C120.428 18.5912 120.572 18.6633 120.716 18.8794C120.86 19.0956 120.932 19.3118 120.932 19.6721C120.932 20.3206 120.788 20.825 120.5 21.1853C118.916 23.1309 117.403 24.0677 116.035 24.0677C114.883 24.0677 114.163 23.7074 113.659 22.9868ZM114.595 10.7368C114.235 10.4486 114.091 10.0162 114.091 9.43973C114.091 8.86326 114.307 8.43091 114.739 8.07061C115.171 7.71032 115.747 7.49414 116.395 7.49414C116.971 7.49414 117.476 7.63826 117.836 7.92649C118.196 8.21473 118.412 8.64708 118.412 9.15149C118.412 9.80002 118.196 10.3044 117.764 10.6647C117.331 11.025 116.827 11.2412 116.107 11.2412C115.459 11.2412 114.955 11.025 114.595 10.7368Z"/><path fill="#404041" d="M127.918 21.7617C128.134 22.05 128.206 22.3382 128.206 22.6985C128.206 23.1309 128.134 23.4191 127.918 23.7794C127.702 24.1397 127.486 24.2117 127.198 24.2117C126.622 24.2117 126.118 24.2117 125.613 24.2117C125.109 24.2117 124.677 24.2117 124.317 24.1397C122.877 24.0676 121.797 24.0676 121.22 24.0676C121.004 24.0676 120.716 24.1397 120.284 24.2838C119.78 24.4279 119.42 24.5 119.204 24.5C118.34 24.5 117.908 23.9235 117.908 22.8426C117.908 22.122 118.196 21.2573 118.7 20.3206C119.204 19.3838 119.924 18.447 120.788 17.5823C121.653 16.7176 122.517 15.997 123.453 15.3485L120.068 15.4206C119.708 15.4206 119.42 15.3485 119.276 15.0603C119.06 14.772 118.988 14.4838 118.988 14.1235C118.988 13.7632 119.06 13.4029 119.276 13.1147C119.492 12.8264 119.708 12.6823 119.996 12.6823C120.716 12.6823 121.581 12.7544 122.589 12.8264C122.733 12.8264 123.165 12.8985 123.741 12.8985C124.317 12.9706 124.893 12.9706 125.325 12.9706C125.469 12.9706 125.758 12.8985 126.262 12.7544C126.334 12.7544 126.478 12.6823 126.694 12.6103C126.91 12.5382 127.126 12.5382 127.27 12.5382C127.558 12.5382 127.702 12.6823 127.918 12.8985C128.062 13.1147 128.134 13.475 128.134 13.9073C128.134 14.4117 127.99 14.8441 127.774 15.1323C127.558 15.4206 127.126 15.7088 126.694 15.925C126.118 16.2132 125.469 16.6456 124.749 17.222C124.029 17.8706 123.309 18.5191 122.589 19.3117C121.941 20.1044 121.437 20.7529 121.076 21.4735L127.126 21.1853C127.414 21.3294 127.702 21.4735 127.918 21.7617Z"/><path fill="#404041" d="M130.295 23.4911C129.935 23.1309 129.791 22.6264 129.791 21.9779C129.791 21.2573 130.007 20.6809 130.367 20.2485C130.799 19.8162 131.375 19.6 132.095 19.6C132.815 19.6 133.319 19.7441 133.679 20.1044C134.04 20.4647 134.184 20.9691 134.184 21.6176C134.184 22.3382 133.967 22.9147 133.535 23.347C133.103 23.7794 132.527 23.9956 131.807 23.9956C131.159 24.0676 130.655 23.9235 130.295 23.4911Z"/><path fill="#404041" d="M136.776 22.7705C135.912 21.9058 135.479 20.6808 135.479 19.2397C135.479 17.9426 135.768 16.7897 136.272 15.8529C136.776 14.8441 137.424 14.1235 138.288 13.6191C139.08 13.1147 139.945 12.8264 140.881 12.8264C141.745 12.8264 142.465 13.1147 142.897 13.6191C143.329 14.1235 143.617 14.772 143.617 15.6367C143.617 16.2852 143.473 16.8617 143.185 17.3661C142.897 17.7985 142.537 18.0867 142.033 18.0867C141.745 18.0867 141.457 18.0147 141.313 17.8705C141.097 17.7264 141.025 17.5102 141.025 17.2941C141.025 17.1499 141.025 17.0779 141.097 16.9338C141.097 16.7897 141.169 16.7176 141.169 16.6455C141.241 16.4294 141.313 16.2132 141.313 15.997C141.313 15.7808 141.241 15.6367 141.169 15.4926C141.097 15.3485 140.953 15.3485 140.737 15.3485C140.377 15.3485 140.017 15.4926 139.728 15.8529C139.44 16.2132 139.152 16.6455 138.936 17.1499C138.72 17.7264 138.648 18.3029 138.648 19.0235C138.648 20.897 139.44 21.8338 141.097 21.8338C141.745 21.8338 142.465 21.6176 143.185 21.1852C143.977 20.7529 144.698 20.1044 145.418 19.2397C145.634 19.0235 145.85 18.8794 146.066 18.8794C146.282 18.8794 146.426 18.9514 146.57 19.1676C146.714 19.3838 146.786 19.5999 146.786 19.9602C146.786 20.5367 146.642 21.0411 146.354 21.4735C145.634 22.4102 144.698 23.1308 143.689 23.6352C142.609 24.1397 141.601 24.3558 140.665 24.3558C138.864 24.0676 137.712 23.6352 136.776 22.7705Z"/><path fill="#404041" d="M157.445 16.9338C157.589 17.15 157.589 17.4382 157.589 17.7265C157.589 18.5191 157.373 18.9515 156.869 19.0956C155.932 19.4559 154.852 19.6 153.7 19.672C153.412 21.0412 152.764 22.122 151.899 22.9147C151.035 23.7073 149.955 24.1397 148.875 24.1397C147.938 24.1397 147.074 23.9235 146.426 23.4191C145.778 22.9147 145.202 22.3382 144.914 21.5456C144.554 20.7529 144.41 19.9603 144.41 19.0235C144.41 17.7985 144.626 16.7176 145.13 15.7809C145.562 14.8441 146.21 14.0515 147.074 13.547C147.866 13.0426 148.803 12.7544 149.811 12.7544C151.035 12.7544 151.971 13.1867 152.764 13.9794C153.484 14.8441 153.916 15.8529 154.06 17.0779C154.78 17.0059 155.716 16.8617 156.724 16.5735C156.869 16.5735 156.941 16.5015 157.085 16.5015C157.157 16.6456 157.301 16.7176 157.445 16.9338ZM150.387 20.897C150.747 20.4647 151.035 19.8882 151.107 19.0956C150.603 18.7353 150.243 18.3029 149.955 17.7985C149.667 17.222 149.595 16.6456 149.595 16.0691C149.595 15.7809 149.595 15.5647 149.667 15.2765H149.523C148.875 15.2765 148.371 15.5647 147.938 16.2132C147.506 16.8617 147.29 17.7265 147.29 18.8073C147.29 19.672 147.434 20.3926 147.794 20.825C148.155 21.2573 148.515 21.5456 149.019 21.5456C149.595 21.5456 150.027 21.3294 150.387 20.897Z"/><path fill="#404041" d="M155.932 23.1309C155.716 22.4823 155.572 21.4735 155.572 20.0323C155.572 17.9426 155.86 15.997 156.436 14.1235C156.58 13.6912 156.797 13.3309 157.157 13.1147C157.517 12.8985 157.949 12.8265 158.525 12.8265C158.813 12.8265 159.101 12.8985 159.173 12.9706C159.317 13.0426 159.389 13.1867 159.389 13.4029C159.389 13.6912 159.245 14.2676 159.029 15.1323C158.885 15.7809 158.741 16.3573 158.669 16.7897C158.597 17.2941 158.525 17.8706 158.453 18.5191C158.885 17.2941 159.389 16.2132 159.965 15.3485C160.541 14.4838 161.19 13.8353 161.838 13.4029C162.486 12.9706 163.062 12.7544 163.638 12.7544C164.214 12.7544 164.574 12.8985 164.79 13.1147C165.006 13.4029 165.15 13.7632 165.15 14.2676C165.15 14.772 165.006 15.7088 164.718 17.0779C164.574 17.6544 164.502 18.0867 164.43 18.375C164.934 17.0059 165.511 15.925 166.159 15.0603C166.807 14.1956 167.455 13.6191 168.031 13.2588C168.679 12.8985 169.255 12.7544 169.76 12.7544C170.264 12.7544 170.624 12.8985 170.912 13.1147C171.2 13.4029 171.272 13.7632 171.272 14.2676C171.272 14.7 171.2 15.4926 170.984 16.6456C170.84 17.6544 170.696 18.5191 170.624 19.3838C170.552 20.2485 170.48 21.2573 170.48 22.2662C170.48 22.8426 170.336 23.275 170.12 23.5632C169.904 23.8515 169.471 23.9235 168.895 23.9235C168.391 23.9235 167.959 23.7794 167.743 23.4912C167.527 23.2029 167.383 22.8426 167.383 22.2662C167.383 21.6176 167.527 20.5367 167.743 19.0956C167.959 17.7985 168.031 17.0059 168.031 16.6456C168.031 16.3573 167.959 16.2853 167.743 16.2853C167.527 16.2853 167.239 16.5735 166.879 17.0779C166.519 17.5823 166.087 18.3029 165.727 19.1676C165.367 20.0323 165.006 20.9691 164.79 21.9779C164.646 22.7706 164.43 23.275 164.214 23.4912C163.998 23.7794 163.638 23.8515 163.134 23.8515C162.63 23.8515 162.198 23.6353 161.982 23.1309C161.694 22.6265 161.622 22.05 161.622 21.3294C161.622 20.7529 161.694 19.8162 161.838 18.6632C161.982 17.6544 162.054 16.9338 162.054 16.6456C162.054 16.3573 161.982 16.2853 161.766 16.2853C161.55 16.2853 161.19 16.5735 160.829 17.15C160.469 17.7265 160.109 18.447 159.749 19.3838C159.389 20.2485 159.101 21.1853 158.957 22.05C158.813 22.7706 158.597 23.275 158.381 23.5632C158.165 23.8515 157.805 23.9235 157.301 23.9235C156.653 24.0676 156.22 23.7794 155.932 23.1309Z"/><path fill="#49B977" d="M18.8853 19.6C20.1816 21.7618 19.5334 24.5721 17.3729 25.9412C15.2124 27.3103 12.4038 26.6618 11.0355 24.4279L0.665113 7.78235C-0.631183 5.62058 0.0169649 2.81029 2.17746 1.44117C2.89762 1.00882 3.76182 0.720581 4.62602 0.720581C6.13836 0.720581 7.65071 1.51323 8.51491 2.88235L18.8853 19.6Z"/><path fill="#49B977" d="M32.4963 25.2206C30.3358 26.5897 27.5271 25.9412 26.1588 23.7074L15.7885 7.06176C14.4201 4.9 15.0683 2.08971 17.3008 0.720588C18.021 0.288235 18.8852 0 19.6774 0C21.1897 0 22.702 0.792647 23.5662 2.16176L33.9366 18.8074C35.3049 21.0412 34.6568 23.8515 32.4963 25.2206Z"/></svg>