<svg xmlns="http://www.w3.org/2000/svg" width="25" height="25" fill="none" viewBox="0 0 25 25"><path fill="#2F2C2D" d="M23.7234 17.0699H1.27673C0.572755 17.0699 0 16.4974 0 15.7935V3.72382C0 3.01999 0.572755 2.44739 1.27673 2.44739H23.7234C24.4271 2.44739 25 3.01999 25 3.72382V15.7935C25 16.4974 24.4271 17.0699 23.7234 17.0699ZM1.27673 3.47846C1.14133 3.47846 1.03097 3.58851 1.03097 3.72382V15.7935C1.03097 15.9288 1.14133 16.0389 1.27673 16.0389H23.7234C23.8588 16.0389 23.969 15.9288 23.969 15.7935V3.72382C23.969 3.58851 23.8588 3.47846 23.7234 3.47846H1.27673Z"/><path fill="#2F2C2D" d="M9.83115 13.6764C9.66186 13.5838 9.55176 13.4112 9.55176 13.2184V6.29904C9.55176 6.10608 9.65961 5.92939 9.83115 5.84087C10.0026 5.7524 10.2089 5.76715 10.3661 5.87898L15.2313 9.33863C15.3675 9.43536 15.4481 9.59189 15.4481 9.75873C15.4481 9.92562 15.3675 10.0821 15.2313 10.1789C15.2313 10.1789 11.5823 12.7735 10.3661 13.6384C10.2773 13.7016 10.0857 13.8158 9.83115 13.6764ZM10.5829 7.29822V12.2192L14.043 9.75873L10.5829 7.29822Z"/><path fill="#2F2C2D" d="M24.4845 19.9963H14.631C14.4021 19.1197 13.6036 18.4711 12.6564 18.4711C11.7093 18.4711 10.9109 19.1197 10.682 19.9963H0.51551C0.230867 19.9963 0 20.2271 0 20.5118C0 20.7965 0.230867 21.0273 0.51551 21.0273H10.6821C10.911 21.9038 11.7094 22.5526 12.6564 22.5526C13.6036 22.5526 14.4022 21.9038 14.631 21.0273H24.4845C24.769 21.0273 25 20.7966 25 20.5118C25 20.2271 24.769 19.9963 24.4845 19.9963ZM12.6564 21.5215C12.0998 21.5215 11.6468 21.0685 11.6468 20.5117C11.6468 19.9551 12.0998 19.5021 12.6564 19.5021C13.2132 19.5021 13.6661 19.9551 13.6661 20.5117C13.6661 21.0686 13.2132 21.5215 12.6564 21.5215Z"/></svg>