<svg xmlns="http://www.w3.org/2000/svg" width="33" height="37" fill="none" viewBox="0 0 33 37"><path fill="#1C53BE" d="M29.125 9.25324C29.1028 6.79387 28.1112 4.44257 26.3655 2.71005C24.6198 0.977536 22.2611 0.0037202 19.8016 0.000116563H6.23127C5.89421 -0.00422167 5.5668 0.112662 5.30869 0.329478C5.05057 0.546293 4.87893 0.848612 4.82502 1.18137L0.0156472 31.3454C-0.0144017 31.5452 -0.00106604 31.749 0.0547465 31.9432C0.110559 32.1373 0.207538 32.3171 0.339085 32.4704C0.469782 32.6274 0.633091 32.7539 0.817657 32.8414C1.00222 32.9288 1.20362 32.975 1.40784 32.9767H7.21565L6.90627 34.9314C6.87342 35.134 6.88531 35.3413 6.94111 35.5388C6.99691 35.7363 7.09527 35.9192 7.22928 36.0747C7.36329 36.2301 7.52971 36.3544 7.71684 36.4387C7.90398 36.5229 8.1073 36.5653 8.31252 36.5626H14.8516C15.1866 36.5675 15.5123 36.4526 15.7702 36.2386C16.028 36.0246 16.2009 35.7256 16.2578 35.3954L17.6641 26.8032H22.0938C24.8663 26.7921 27.5217 25.6838 29.4796 23.7207C31.4374 21.7576 32.5385 19.0992 32.5422 16.3267V15.9329C32.5408 14.6287 32.2304 13.3435 31.6364 12.1824C31.0424 11.0213 30.1818 10.0175 29.125 9.25324ZM7.42659 2.81262H19.8016C21.277 2.81714 22.7072 3.32155 23.8591 4.24352C25.0109 5.16549 25.8163 6.45061 26.1438 7.88918C25.5354 7.7465 24.9124 7.6757 24.2875 7.67824H12.5594C12.2223 7.6739 11.8949 7.79079 11.6368 8.0076C11.3787 8.22442 11.2071 8.52674 11.1531 8.85949L10.3235 14.0626C10.2638 14.4356 10.3547 14.817 10.5762 15.1229C10.7978 15.4288 11.1317 15.6342 11.5047 15.6939C11.8777 15.7535 12.2591 15.6626 12.565 15.4411C12.8709 15.2196 13.0763 14.8856 13.136 14.5126L13.7828 10.4626H24.3156C24.9897 10.4662 25.6573 10.5949 26.2844 10.8423C26.0171 13.0437 24.9549 15.0717 23.2976 16.5452C21.6403 18.0186 19.502 18.836 17.2844 18.8439H10.7594C10.4244 18.839 10.0986 18.9539 9.84082 19.1679C9.58301 19.3819 9.41007 19.6809 9.35315 20.0111L7.63752 30.1642H3.05315L7.42659 2.81262ZM29.7297 16.3267C29.726 18.3533 28.9212 20.2963 27.4908 21.732C26.0604 23.1677 24.1204 23.9796 22.0938 23.9907H16.4688C16.1338 23.9859 15.808 24.1008 15.5502 24.3148C15.2924 24.5287 15.1194 24.8277 15.0625 25.1579L13.6563 33.7501H9.94377L10.2531 31.7954L11.9406 21.6845H17.2563C19.8815 21.6768 22.4305 20.8009 24.5061 19.1934C26.5817 17.5858 28.0672 15.3369 28.7313 12.797C29.384 13.7121 29.7332 14.8089 29.7297 15.9329V16.3267Z"/></svg>