<svg width="30" height="30" viewBox="0 0 30 30" fill="none" xmlns="http://www.w3.org/2000/svg">
<path d="M15 0C6.72867 0 0 6.72867 0 15C0 23.2713 6.72867 30 15 30C23.2713 30 30 23.2713 30 15C30 6.72867 23.2713 0 15 0ZM15 28.125C7.76253 28.125 1.875 22.2375 1.875 15C1.875 7.76253 7.76253 1.875 15 1.875C22.2375 1.875 28.125 7.76253 28.125 15C28.125 22.2375 22.2375 28.125 15 28.125Z" fill="#D355B8"/>
<path d="M21.5625 14.0625H8.4375C7.92 14.0625 7.5 14.4825 7.5 15C7.5 15.5175 7.92 15.9375 8.4375 15.9375H21.5625C22.08 15.9375 22.5 15.5175 22.5 15C22.5 14.4825 22.08 14.0625 21.5625 14.0625Z" fill="#D355B8"/>
<path d="M15 7.5C14.4825 7.5 14.0625 7.92 14.0625 8.4375V21.5625C14.0625 22.08 14.4825 22.5 15 22.5C15.5175 22.5 15.9375 22.08 15.9375 21.5625V8.4375C15.9375 7.92 15.5175 7.5 15 7.5Z" fill="#D355B8"/>
</svg>
