<svg width="29" height="29" viewBox="0 0 29 29" fill="none" xmlns="http://www.w3.org/2000/svg">
<path d="M27.7203 26.3003L22.8703 21.4603C25.0579 18.9081 26.1719 15.6078 25.9785 12.2519C25.785 8.89605 24.2992 5.74556 21.8329 3.46163C19.3665 1.17769 16.1113 -0.062113 12.7505 0.00239688C9.3897 0.0669067 6.18451 1.43072 3.80761 3.80761C1.43072 6.18451 0.0669067 9.3897 0.00239688 12.7505C-0.062113 16.1113 1.17769 19.3665 3.46163 21.8329C5.74556 24.2992 8.89605 25.785 12.2519 25.9785C15.6078 26.1719 18.9081 25.0579 21.4603 22.8703L26.3003 27.7203C26.3933 27.814 26.5039 27.8884 26.6257 27.9392C26.7476 27.99 26.8783 28.0161 27.0103 28.0161C27.1423 28.0161 27.273 27.99 27.3949 27.9392C27.5168 27.8884 27.6274 27.814 27.7203 27.7203C27.814 27.6274 27.8884 27.5168 27.9392 27.3949C27.99 27.273 28.0161 27.1423 28.0161 27.0103C28.0161 26.8783 27.99 26.7476 27.9392 26.6257C27.8884 26.5039 27.814 26.3933 27.7203 26.3003ZM13.0103 24.0103C10.8347 24.0103 8.70798 23.3652 6.89904 22.1565C5.0901 20.9478 3.68021 19.2298 2.84764 17.2198C2.01508 15.2099 1.79724 12.9981 2.22168 10.8643C2.64612 8.73053 3.69376 6.77052 5.23214 5.23214C6.77052 3.69376 8.73053 2.64612 10.8643 2.22168C12.9981 1.79724 15.2098 2.01508 17.2198 2.84764C19.2298 3.68021 20.9478 5.0901 22.1565 6.89904C23.3652 8.70798 24.0103 10.8347 24.0103 13.0103C24.0103 15.9277 22.8514 18.7256 20.7885 20.7885C18.7256 22.8514 15.9277 24.0103 13.0103 24.0103Z" fill="#49B977"/>
</svg>
