<svg width="23" height="23" viewBox="0 0 23 23" fill="none" xmlns="http://www.w3.org/2000/svg">
<path d="M21.3229 0.00012207H18.9271C18.0023 0.00012207 17.25 0.752415 17.25 1.67721V2.02796C15.801 1.29004 12.5101 0.00012207 7.15779 0.00012207H5.62446C3.40304 0.00012207 1.51704 1.58904 1.14042 3.77787L0.0670815 10.007C-0.161003 11.3362 0.206039 12.6875 1.07237 13.7167C1.93775 14.7441 3.20658 15.3335 4.55112 15.3335H8.89812C8.62691 16.0618 8.35571 17.1236 8.35571 18.448C8.35571 22.0485 10.3931 23.0001 11.4703 23.0001C13.4598 23.0001 13.6265 21.1448 13.6265 19.4064C13.6265 17.2846 16.0061 15.5213 17.2625 14.7374C17.3267 15.6037 18.0445 16.2918 18.9271 16.2918H21.3229C22.2477 16.2918 23 15.5395 23 14.6147V1.67721C23 0.752415 22.2477 0.00012207 21.3229 0.00012207ZM12.189 19.4064C12.189 21.5626 11.8239 21.5626 11.4703 21.5626C10.7956 21.5626 9.79321 20.7327 9.79321 18.448C9.79321 16.3244 10.625 15.023 10.6308 15.0134C10.7774 14.793 10.7918 14.5093 10.6662 14.2755C10.5417 14.0416 10.2973 13.896 10.0328 13.896H4.55112C3.63112 13.896 2.76383 13.4935 2.17158 12.791C1.57837 12.0876 1.32729 11.1618 1.4835 10.2524L2.55683 4.0232C2.81462 2.52629 4.10454 1.43858 5.62446 1.43858H7.15779C13.6773 1.43762 16.9433 3.47696 17.25 3.67916V13.0804C16.4517 13.504 12.189 15.9286 12.189 19.4064ZM21.5625 14.6147C21.5625 14.747 21.4552 14.8543 21.3229 14.8543H18.9271C18.7948 14.8543 18.6875 14.747 18.6875 14.6147V1.67721C18.6875 1.54687 18.7967 1.43762 18.9271 1.43762H21.3229C21.4552 1.43762 21.5625 1.54496 21.5625 1.67721V14.6147Z" fill="#A9A9A9"/>
</svg>
