<svg xmlns="http://www.w3.org/2000/svg" width="26" height="26" fill="none" viewBox="0 0 26 26"><path fill="#718D8B" d="M21.5312 3.25H17.0625V2.4375C17.0625 1.09347 15.969 0 14.625 0H11.375C10.031 0 8.9375 1.09347 8.9375 2.4375V3.25H4.46875C3.34872 3.25 2.4375 4.16122 2.4375 5.28125V8.125C2.4375 8.5737 2.8013 8.9375 3.25 8.9375H3.69403L4.39598 23.6784C4.45798 24.9803 5.52744 26 6.83069 26H19.1693C20.4726 26 21.5421 24.9803 21.604 23.6784L22.306 8.9375H22.75C23.1987 8.9375 23.5625 8.5737 23.5625 8.125V5.28125C23.5625 4.16122 22.6513 3.25 21.5312 3.25ZM10.5625 2.4375C10.5625 1.98951 10.927 1.625 11.375 1.625H14.625C15.073 1.625 15.4375 1.98951 15.4375 2.4375V3.25H10.5625V2.4375ZM4.0625 5.28125C4.0625 5.05725 4.24475 4.875 4.46875 4.875H21.5312C21.7552 4.875 21.9375 5.05725 21.9375 5.28125V7.3125C21.6871 7.3125 5.10011 7.3125 4.0625 7.3125V5.28125ZM19.9808 23.6011C19.9602 24.0351 19.6037 24.375 19.1693 24.375H6.83069C6.39625 24.375 6.03977 24.0351 6.01915 23.6011L5.32086 8.9375H20.6791L19.9808 23.6011Z"/><path fill="#718D8B" d="M13 22.75C13.4487 22.75 13.8125 22.3862 13.8125 21.9375V11.375C13.8125 10.9263 13.4487 10.5625 13 10.5625C12.5513 10.5625 12.1875 10.9263 12.1875 11.375V21.9375C12.1875 22.3862 12.5512 22.75 13 22.75Z"/><path fill="#718D8B" d="M17.0625 22.75C17.5112 22.75 17.875 22.3862 17.875 21.9375V11.375C17.875 10.9263 17.5112 10.5625 17.0625 10.5625C16.6138 10.5625 16.25 10.9263 16.25 11.375V21.9375C16.25 22.3862 16.6137 22.75 17.0625 22.75Z"/><path fill="#718D8B" d="M8.9375 22.75C9.3862 22.75 9.75 22.3862 9.75 21.9375V11.375C9.75 10.9263 9.3862 10.5625 8.9375 10.5625C8.4888 10.5625 8.125 10.9263 8.125 11.375V21.9375C8.125 22.3862 8.48875 22.75 8.9375 22.75Z"/></svg>