<svg width="23" height="23" viewBox="0 0 23 23" fill="none" xmlns="http://www.w3.org/2000/svg">
<path d="M1.67708 23.0001H4.07292C4.99771 23.0001 5.75 22.2478 5.75 21.323V20.9723C7.199 21.7102 10.4899 23.0001 15.8422 23.0001H17.3755C19.597 23.0001 21.483 21.4112 21.8596 19.2224L22.9329 12.9932C23.161 11.664 22.794 10.3127 21.9276 9.2835C21.0623 8.25616 19.7934 7.66679 18.4489 7.66679H14.1019C14.3731 6.93846 14.6443 5.87662 14.6443 4.55221C14.6443 0.951747 12.6069 0.00012207 11.5297 0.00012207C9.54021 0.00012207 9.37346 1.85546 9.37346 3.59387C9.37346 5.71562 6.99392 7.47895 5.73754 8.26287C5.67333 7.39654 4.95554 6.70846 4.07292 6.70846H1.67708C0.752292 6.70846 0 7.46075 0 8.38554V21.323C0 22.2478 0.752292 23.0001 1.67708 23.0001ZM10.811 3.59387C10.811 1.43762 11.1761 1.43762 11.5297 1.43762C12.2044 1.43762 13.2068 2.26754 13.2068 4.55221C13.2068 6.67587 12.375 7.97729 12.3692 7.98687C12.2226 8.20729 12.2082 8.49096 12.3338 8.72479C12.4583 8.95862 12.7027 9.10429 12.9672 9.10429H18.4489C19.3689 9.10429 20.2362 9.50679 20.8284 10.2092C21.4216 10.9127 21.6727 11.8384 21.5165 12.7479L20.4432 18.977C20.1854 20.474 18.8955 21.5617 17.3755 21.5617H15.8422C9.32267 21.5626 6.05667 19.5233 5.75 19.3211V9.91983C6.54829 9.49625 10.811 7.07166 10.811 3.59387ZM1.4375 8.38554C1.4375 8.25329 1.54483 8.14596 1.67708 8.14596H4.07292C4.20517 8.14596 4.3125 8.25329 4.3125 8.38554V21.323C4.3125 21.4534 4.20325 21.5626 4.07292 21.5626H1.67708C1.54483 21.5626 1.4375 21.4553 1.4375 21.323V8.38554Z" fill="#A9A9A9"/>
</svg>
