<svg width="28" height="28" viewBox="0 0 28 28" fill="none" xmlns="http://www.w3.org/2000/svg">
<path d="M19.8904 13.5302C19.5117 14.007 19.0863 14.4472 18.5976 14.8445C21.3867 16.4444 23.2697 19.4522 23.2697 22.8916C23.2697 24.75 19.1978 26.2058 13.9997 26.2058C8.8016 26.2058 4.72972 24.75 4.72972 22.8916C4.72972 19.4522 6.61268 16.4444 9.40177 14.8445C8.91321 14.4472 8.48778 14.0071 8.10904 13.5302C5.00305 15.4916 2.93555 18.9545 2.93555 22.8916C2.93555 24.0843 3.5886 25.7464 6.69992 26.8919C8.64067 27.6065 11.2331 28 13.9998 28C16.7664 28 19.3588 27.6065 21.2996 26.8919C24.4109 25.7464 25.064 24.0843 25.064 22.8916C25.0639 18.9545 22.9963 15.4916 19.8904 13.5302Z" fill="#49B977"/>
<path d="M13.9997 14.7124C17.4866 14.7124 20.1717 11.3418 20.1717 7.35622C20.1717 3.36876 17.4852 0 13.9997 0C10.5127 0 7.82764 3.37054 7.82764 7.35616C7.82764 11.3436 10.5141 14.7124 13.9997 14.7124ZM13.9997 1.79417C16.4136 1.79417 18.3775 4.28926 18.3775 7.35616C18.3775 10.4231 16.4136 12.9181 13.9997 12.9181C11.5858 12.9181 9.62181 10.4231 9.62181 7.35616C9.62181 4.28926 11.5858 1.79417 13.9997 1.79417Z" fill="#49B977"/>
</svg>
