<svg xmlns="http://www.w3.org/2000/svg" width="46" height="46" fill="none" viewBox="0 0 46 46"><path fill="#4C2720" d="M46 35.9376C46 38.3194 44.068 40.25 41.6875 40.25H4.31246C1.93133 40.25 0 38.3194 0 35.9376V10.0625C0 7.68129 1.93133 5.75006 4.31246 5.75006H41.6874C44.0687 5.75006 45.9999 7.68139 45.9999 10.0625V35.9376H46Z"/><path fill="#804B1C" d="M4.31246 5.75C1.93133 5.75 0 7.68133 0 10.0626V35.9376C0 37.0409 0.41687 38.0435 1.09826 38.8054L34.1551 5.75H4.31246Z"/><path fill="#FFF4D1" d="M46 14.3749H0V31.625H46V14.3749Z"/><path fill="#FC6100" d="M46 35.9375V31.6251H0V35.9375C0 38.3194 1.93133 40.25 4.31246 40.25H41.6874C44.0688 40.25 46 38.3194 46 35.9375Z"/><path fill="#FF8000" d="M0 31.625V35.9375C0 37.0408 0.417633 38.0434 1.09826 38.8053L8.27859 31.6249H0V31.625Z"/><path fill="#fff" d="M0 14.3749V31.625H8.27926L25.53 14.3749H0Z"/><path fill="#4C2720" d="M19.0914 27.0624C18.9146 27.7308 18.4639 28.114 17.9184 28.114C17.2219 28.114 16.8403 27.6079 17.0724 26.7498L19.0368 19.4501C19.2136 18.7817 19.6642 18.3993 20.2098 18.3993C20.9055 18.3993 21.2879 18.9039 21.0557 19.7642L19.0914 27.0624Z"/><path fill="#4C2720" d="M27.1638 25.3296C27.1638 24.8667 26.8224 24.5936 25.5409 24.0747C24.2982 23.5701 23.1934 22.9009 23.1934 21.4957C23.1934 19.545 24.94 18.3441 26.9863 18.3441C28.4727 18.3441 29.2777 18.7674 29.8922 19.1908C30.1775 19.3949 30.3846 19.6414 30.3846 20.0634C30.3846 20.6499 29.9203 21.0869 29.3474 21.0869C29.1297 21.0869 28.9248 21.0329 28.7746 20.9108C28.1471 20.4184 27.6008 20.1862 26.8232 20.1862C25.9369 20.1862 25.431 20.6778 25.431 21.1558C25.431 21.6604 25.8127 21.8789 27.1086 22.4107C28.4182 22.9426 29.4 23.5981 29.4 24.9889C29.4 26.9949 27.6139 28.1672 25.6079 28.1672C24.4773 28.1672 23.057 27.9228 22.0745 27.0754C21.8431 26.8842 21.6655 26.5708 21.6655 26.2021C21.6655 25.602 22.1018 25.1391 22.689 25.1391C22.9751 25.1391 23.2209 25.2894 23.3582 25.3979C24.1624 26.0671 24.7634 26.3251 25.7042 26.3251C26.55 26.3258 27.1638 25.9305 27.1638 25.3296Z"/><path fill="#4C2720" d="M40.2496 27.1034C40.2496 27.6496 39.7989 28.114 39.1715 28.114C38.585 28.114 38.217 27.7582 38.148 27.2809L37.9302 25.8887H33.7003L32.6078 27.4584C32.349 27.8264 31.9803 28.114 31.544 28.114C30.9985 28.114 30.6851 27.7855 30.6851 27.2939C30.6851 26.7096 30.8496 26.7102 36.2389 19.1482C36.6529 18.5517 37.1445 18.3296 37.7518 18.3296C38.4619 18.3296 38.7882 18.7112 38.8989 19.3258C38.9472 19.6003 40.2496 26.8267 40.2496 27.1034ZM37.6297 24.0336L37.1373 20.8819L34.9818 24.0336H37.6297Z"/><path fill="#4C2720" d="M15.8095 18.3993C15.3451 18.3993 14.9908 18.6451 14.7177 19.0685L10.72 25.139L10.0235 19.3689C9.95018 18.7235 9.49445 18.3993 8.91874 18.3993C8.09579 18.3993 8.47238 18.3993 6.82714 18.3993C6.23205 18.3993 5.74902 18.8823 5.74902 19.4774C5.74902 20.0725 6.23205 20.5555 6.82714 20.5555H7.95919L8.94614 27.2536C9.05611 27.9796 9.41981 28.1815 10.0236 28.1815C10.5971 28.1815 11.0471 27.881 11.4158 27.3355L16.5728 19.7764C16.6684 19.6412 16.764 19.3681 16.764 19.1769C16.7639 18.6444 16.3557 18.3993 15.8095 18.3993Z"/></svg>