<svg xmlns="http://www.w3.org/2000/svg" width="7" height="7" fill="none" viewBox="0 0 7 7"><path fill="#2F2C2D" d="M3.0896 3.50225L0.0889869 0.501636C-0.0268245 0.389788 -0.030035 0.205242 0.0818129 0.0894308C0.193661 -0.0263801 0.378207 -0.0295913 0.494018 0.0822567C0.496443 0.0845968 0.498835 0.0869882 0.501192 0.0894308L3.50182 3.09004L6.50244 0.0894137C6.61825 -0.0224343 6.80279 -0.019223 6.91464 0.0965879C7.02376 0.209563 7.02376 0.38866 6.91464 0.501636L3.91403 3.50225L6.91464 6.50286C7.02845 6.61669 7.02845 6.80124 6.91464 6.91507C6.80081 7.02886 6.61627 7.02886 6.50244 6.91507L3.50182 3.91445L0.501209 6.91507C0.385398 7.02691 0.200852 7.0237 0.089004 6.90789C-0.0200939 6.79492 -0.0200939 6.61582 0.089004 6.50286L3.0896 3.50225Z"/></svg>